<?xml version="1.0" encoding="UTF-8" standalone="no"?>
<!-- Created with Inkscape (http://www.inkscape.org/) -->

<svg
   xmlns:dc="http://purl.org/dc/elements/1.1/"
   xmlns:cc="http://creativecommons.org/ns#"
   xmlns:rdf="http://www.w3.org/1999/02/22-rdf-syntax-ns#"
   xmlns:svg="http://www.w3.org/2000/svg"
   xmlns="http://www.w3.org/2000/svg"
   xmlns:sodipodi="http://sodipodi.sourceforge.net/DTD/sodipodi-0.dtd"
   xmlns:inkscape="http://www.inkscape.org/namespaces/inkscape"
   version="1.1"
   id="svg2"
   xml:space="preserve"
   width="600.30743"
   height="513.46503"
   viewBox="0 0 600.30743 513.46503"
   sodipodi:docname="awkward-1-0-layers.svg"
   inkscape:export-filename="/home/pivarski/irishep/awkward-1.0/docs/img/awkward-1-0-layers.png"
   inkscape:export-xdpi="150.05025"
   inkscape:export-ydpi="150.05025"
   inkscape:version="0.92.3 (2405546, 2018-03-11)"><metadata
     id="metadata8"><rdf:RDF><cc:Work
         rdf:about=""><dc:format>image/svg+xml</dc:format><dc:type
           rdf:resource="http://purl.org/dc/dcmitype/StillImage" /><dc:title></dc:title></cc:Work></rdf:RDF></metadata><defs
     id="defs6"><linearGradient
       x1="100.76061"
       y1="202.25296"
       x2="110.78322"
       y2="170.44788"
       gradientUnits="userSpaceOnUse"
       gradientTransform="matrix(2.834646,0,0,2.834646,-231.67647,-310.74488)"
       spreadMethod="pad"
       id="linearGradient68"><stop
         style="stop-opacity:1;stop-color:#ffff00"
         offset="0"
         id="stop64" /><stop
         style="stop-opacity:1;stop-color:#ffffff"
         offset="1"
         id="stop66" /></linearGradient><linearGradient
       x1="100.76061"
       y1="202.25296"
       x2="110.78322"
       y2="170.44788"
       gradientUnits="userSpaceOnUse"
       gradientTransform="matrix(2.834646,0,0,2.834646,-59.319189,-310.74486)"
       spreadMethod="pad"
       id="linearGradient84"><stop
         style="stop-opacity:1;stop-color:#ffff00"
         offset="0"
         id="stop80" /><stop
         style="stop-opacity:1;stop-color:#ffffff"
         offset="1"
         id="stop82" /></linearGradient><linearGradient
       x1="100.76061"
       y1="202.25296"
       x2="110.78322"
       y2="170.44788"
       gradientUnits="userSpaceOnUse"
       gradientTransform="matrix(2.834646,0,0,2.834646,-229.02482,-400.328)"
       spreadMethod="pad"
       id="linearGradient100"><stop
         style="stop-opacity:1;stop-color:#ffff00"
         offset="0"
         id="stop96" /><stop
         style="stop-opacity:1;stop-color:#ffffff"
         offset="1"
         id="stop98" /></linearGradient><linearGradient
       x1="100.76061"
       y1="202.25296"
       x2="110.78322"
       y2="170.44788"
       gradientUnits="userSpaceOnUse"
       gradientTransform="matrix(4.317141,0,0,2.823896,-306.3829,-487.9116)"
       spreadMethod="pad"
       id="linearGradient116"><stop
         style="stop-opacity:1;stop-color:#ffff00"
         offset="0"
         id="stop112" /><stop
         style="stop-opacity:1;stop-color:#ffffff"
         offset="1"
         id="stop114" /></linearGradient><linearGradient
       x1="100.76061"
       y1="202.25296"
       x2="110.78322"
       y2="170.44788"
       gradientUnits="userSpaceOnUse"
       gradientTransform="matrix(2.834646,0,0,2.834646,-230.91885,-185.35007)"
       spreadMethod="pad"
       id="linearGradient156"><stop
         style="stop-opacity:1;stop-color:#ffff00"
         offset="0"
         id="stop152" /><stop
         style="stop-opacity:1;stop-color:#ffffff"
         offset="1"
         id="stop154" /></linearGradient><linearGradient
       x1="100.76061"
       y1="202.25296"
       x2="110.78322"
       y2="170.44788"
       gradientUnits="userSpaceOnUse"
       gradientTransform="matrix(2.834646,0,0,2.834646,-59.319186,-185.3501)"
       spreadMethod="pad"
       id="linearGradient172"><stop
         style="stop-opacity:1;stop-color:#ffff00"
         offset="0"
         id="stop168" /><stop
         style="stop-opacity:1;stop-color:#ffffff"
         offset="1"
         id="stop170" /></linearGradient></defs><sodipodi:namedview
     pagecolor="#ffffff"
     bordercolor="#666666"
     borderopacity="1"
     objecttolerance="10"
     gridtolerance="10"
     guidetolerance="10"
     inkscape:pageopacity="1"
     inkscape:pageshadow="2"
     inkscape:window-width="1920"
     inkscape:window-height="1164"
     id="namedview4"
     showgrid="false"
     fit-margin-top="5"
     fit-margin-left="5"
     fit-margin-right="5"
     fit-margin-bottom="5"
     inkscape:zoom="1.7440829"
     inkscape:cx="222.2324"
     inkscape:cy="290.45655"
     inkscape:window-x="0"
     inkscape:window-y="0"
     inkscape:window-maximized="1"
     inkscape:current-layer="g10"
     showborder="true" /><g
     id="g10"
     inkscape:groupmode="layer"
     inkscape:label="awkward-1-0-layers"
     transform="matrix(1.3333333,0,0,-1.3333333,106.69129,527.36265)"><g
   transform="matrix(1,0,0,-1,0,405.944)"
   id="g124"><path
     inkscape:connector-curvature="0"
     id="path126"
     style="fill:none;stroke:#808080;stroke-width:0.75;stroke-linecap:butt;stroke-linejoin:miter;stroke-miterlimit:4;stroke-dasharray:none;stroke-opacity:1"
     d="m 76.672,242.465 0.758,84.476 168.601,-84.476"
     sodipodi:nodetypes="ccc" /></g><g
   transform="matrix(1,0,0,-1,0,405.944)"
   id="g136"><path
     inkscape:connector-curvature="0"
     id="path138"
     style="fill:none;stroke:#808080;stroke-width:0.75;stroke-linecap:butt;stroke-linejoin:miter;stroke-miterlimit:4;stroke-dasharray:none;stroke-opacity:1"
     d="m 79.672,242.465 169.359,84.476 v -84.476"
     sodipodi:nodetypes="ccc" /></g><g
   transform="matrix(1,0,0,-1,0,405.944)"
   id="g14"><path
     inkscape:connector-curvature="0"
     id="path16"
     style="fill:none;stroke:#808080;stroke-width:0.75;stroke-linecap:butt;stroke-linejoin:miter;stroke-miterlimit:4;stroke-dasharray:none;stroke-opacity:1"
     d="M 249.031,216.547 166.23,63.211" /></g><g
   transform="matrix(-0.539992,1,1,0.539992,0,405.944)"
   id="g18"><path
     inkscape:connector-curvature="0"
     id="path20"
     style="fill:#808080;fill-opacity:1;fill-rule:evenodd;stroke:#808080;stroke-width:0.70392698;stroke-linecap:butt;stroke-linejoin:miter;stroke-miterlimit:4;stroke-dasharray:none;stroke-opacity:1"
     d="m -265.172,102.274 2.639,-2.637 -9.242,2.638 9.24,2.638 z" /></g><g
   transform="matrix(0.539992,-1,-1,-0.539992,0,405.944)"
   id="g22"><path
     inkscape:connector-curvature="0"
     id="path24"
     style="fill:#808080;fill-opacity:1;fill-rule:evenodd;stroke:#808080;stroke-width:0.70392698;stroke-linecap:butt;stroke-linejoin:miter;stroke-miterlimit:4;stroke-dasharray:none;stroke-opacity:1"
     d="m 125.036,-102.275 2.641,-2.64 -9.239,2.64 9.238,2.641 z" /></g><g
   transform="matrix(1,0,0,-1,0,405.944)"
   id="g26"><path
     inkscape:connector-curvature="0"
     id="path28"
     style="fill:none;stroke:#808080;stroke-width:0.75;stroke-linecap:butt;stroke-linejoin:miter;stroke-miterlimit:4;stroke-dasharray:none;stroke-opacity:1"
     d="M 79.324,126.961 160.23,63.211" /></g><g
   transform="matrix(1,0.78798,0.78798,-1,0,405.944)"
   id="g30"><path
     inkscape:connector-curvature="0"
     id="path32"
     style="fill:#808080;fill-opacity:1;fill-rule:evenodd;stroke:#808080;stroke-width:0.628362;stroke-linecap:butt;stroke-linejoin:miter;stroke-miterlimit:4;stroke-dasharray:none;stroke-opacity:1"
     d="m -6.892,116.89 2.358,-2.358 -8.248,2.357 8.247,2.358 z" /></g><g
   transform="matrix(-1,-0.78798,-0.78798,1,0,405.944)"
   id="g34"><path
     inkscape:connector-curvature="0"
     id="path36"
     style="fill:#808080;fill-opacity:1;fill-rule:evenodd;stroke:#808080;stroke-width:0.628362;stroke-linecap:butt;stroke-linejoin:miter;stroke-miterlimit:4;stroke-dasharray:none;stroke-opacity:1"
     d="m -62.233,-116.89 2.358,-2.357 -8.248,2.356 8.247,2.359 z" /></g><g
   transform="matrix(1,0,0,-1,0,405.944)"
   id="g38"><path
     inkscape:connector-curvature="0"
     id="path40"
     style="fill:none;stroke:#808080;stroke-width:0.75;stroke-linecap:butt;stroke-linejoin:miter;stroke-miterlimit:4;stroke-dasharray:none;stroke-opacity:1"
     d="m 76.293,153.309 0.758,69.476" /></g><g
   transform="matrix(0.0109046,-1,-1,-0.0109046,0,405.944)"
   id="g42"><path
     inkscape:connector-curvature="0"
     id="path44"
     style="fill:#808080;fill-opacity:1;fill-rule:evenodd;stroke:#808080;stroke-width:0.79995197;stroke-linecap:butt;stroke-linejoin:miter;stroke-miterlimit:4;stroke-dasharray:none;stroke-opacity:1"
     d="m 161.618,-74.613 3.002,-2.998 -10.498,2.999 10.499,2.997 z" /></g><g
   transform="matrix(-0.0109046,1,1,0.0109046,0,405.944)"
   id="g46"><path
     inkscape:connector-curvature="0"
     id="path48"
     style="fill:#808080;fill-opacity:1;fill-rule:evenodd;stroke:#808080;stroke-width:0.79995197;stroke-linecap:butt;stroke-linejoin:miter;stroke-miterlimit:4;stroke-dasharray:none;stroke-opacity:1"
     d="m -216.099,74.612 3.002,-2.998 -10.502,2.999 10.503,3.001 z" /></g><g
   transform="matrix(1,0,0,-1,0,402.20163)"
   id="g50"><path
     inkscape:connector-curvature="0"
     id="path52"
     style="fill:none;stroke:#000000;stroke-width:0.75;stroke-linecap:butt;stroke-linejoin:miter;stroke-miterlimit:4;stroke-dasharray:2.25, 2.25;stroke-dashoffset:0;stroke-opacity:1"
     d="M 14.918,279.242 H 311.152" /></g><path
   inkscape:connector-curvature="0"
   id="path54"
   style="fill:#ffffff;fill-opacity:1;fill-rule:evenodd;stroke:none"
   d="M 97.508,132.065 H 228.953 V 112.338 H 97.508 Z"
   sodipodi:nodetypes="ccccc" /><g
   id="g60"><g
     transform="matrix(1,0,0,-1,0,405.944)"
     id="g62"><path
       inkscape:connector-curvature="0"
       id="path70"
       style="fill:url(#linearGradient68);fill-opacity:1;fill-rule:evenodd;stroke:#000000;stroke-width:0.75;stroke-linecap:butt;stroke-linejoin:miter;stroke-miterlimit:4;stroke-dasharray:none;stroke-opacity:1"
       d="m 14.547,193.629 h 124.25 v 45.836 H 14.547 Z" /></g></g><text
   id="text74"
   style="font-variant:normal;font-weight:normal;font-size:11.99999905px;font-family:'DejaVu Sans';-inkscape-font-specification:DejaVuSans;writing-mode:lr-tb;fill:#000000;fill-opacity:1;fill-rule:nonzero;stroke:none"
   transform="scale(1,-1)"
   x="38.744884"
   y="-184.92491"><tspan
     id="tspan72"
     sodipodi:role="line"
     y="-184.92491"
     x="38.744884 47.120884 57.164883 67.208878 71.012878 77.600876 80.924881 88.268875 94.544876 100.78487 108.16487">C++ classes</tspan></text>

<g
   id="g76"><g
     transform="matrix(1,0,0,-1,0,405.944)"
     id="g78"><path
       inkscape:connector-curvature="0"
       id="path86"
       style="fill:url(#linearGradient84);fill-opacity:1;fill-rule:evenodd;stroke:#000000;stroke-width:0.75;stroke-linecap:butt;stroke-linejoin:miter;stroke-miterlimit:4;stroke-dasharray:none;stroke-opacity:1"
       d="m 186.906,193.629 h 124.246 v 45.836 H 186.906 Z" /></g></g><text
   id="text90"
   style="font-variant:normal;font-weight:normal;font-size:11.99999905px;font-family:'DejaVu Sans';-inkscape-font-specification:DejaVuSans;writing-mode:lr-tb;fill:#000000;fill-opacity:1;fill-rule:nonzero;stroke:none"
   transform="scale(1,-1)"
   x="203.38535"
   y="-184.92491"><tspan
     id="tspan88"
     sodipodi:role="line"
     y="-184.92491"
     x="203.38535 212.36134 219.95734 231.64534 239.25334 246.59734 250.40134 262.12534 269.45734 277.06534 284.44534 287.76935">Numba models</tspan></text>

<g
   id="g92"><g
     transform="matrix(1,0,0,-1,0,405.944)"
     id="g94"><path
       inkscape:connector-curvature="0"
       id="path102"
       style="fill:url(#linearGradient100);fill-opacity:1;fill-rule:evenodd;stroke:#000000;stroke-width:0.75118101;stroke-linecap:butt;stroke-linejoin:miter;stroke-miterlimit:4;stroke-dasharray:none;stroke-opacity:1"
       d="m 17.199,104.043 h 124.25 v 45.836 H 17.199 Z" /></g></g><text
   id="text106"
   style="font-variant:normal;font-weight:normal;font-size:11.99999905px;font-family:'DejaVu Sans';-inkscape-font-specification:DejaVuSans;writing-mode:lr-tb;fill:#000000;fill-opacity:1;fill-rule:nonzero;stroke:none"
   transform="scale(1,-1)"
   x="27.477562"
   y="-275.67114"><tspan
     id="tspan104"
     sodipodi:role="line"
     y="-275.67114"
     x="27.477562 35.08556 42.177559 49.785561 53.109558 60.705559 68.313553 75.945557 83.577553 87.381554 94.713554 98.937553 102.74155 111.11755 121.16155">pybind11 of C++</tspan></text>

<g
   id="g108"><g
     transform="matrix(1,0,0,-1,0,405.944)"
     id="g110"><path
       inkscape:connector-curvature="0"
       id="path118"
       style="fill:url(#linearGradient116);fill-opacity:1;fill-rule:evenodd;stroke:#000000;stroke-width:0.75;stroke-linecap:butt;stroke-linejoin:miter;stroke-miterlimit:4;stroke-dasharray:none;stroke-opacity:1"
       d="m 68.613,14.547 h 189.23 V 60.211 H 68.613 Z" /></g></g><text
   id="text122"
   style="font-variant:normal;font-weight:normal;font-size:11.99999905px;font-family:'DejaVu Sans';-inkscape-font-specification:DejaVuSans;writing-mode:lr-tb;fill:#000000;fill-opacity:1;fill-rule:nonzero;stroke:none"
   transform="scale(1,-1)"
   x="79.90097"
   y="-365.2543"><tspan
     id="tspan120"
     sodipodi:role="line"
     y="-365.2543"
     x="79.90097 87.508972 90.83297 98.42897 106.03697 109.36097 116.74097 120.54497 128.75298 133.48097 138.41296 145.75697 152.84897 156.65297 163.27696 166.60097 173.94496 180.18497 186.42496 190.22896 193.55296 201.14897 204.98897 212.22496 219.31696 224.02097 231.61696 238.94896">Single Array class in Python</tspan></text>

<g
   transform="matrix(0.00761599,-1,-1,-0.00761599,0,405.944)"
   id="g128"><path
     inkscape:connector-curvature="0"
     id="path130"
     style="fill:#808080;fill-opacity:1;fill-rule:evenodd;stroke:#808080;stroke-width:0.799977;stroke-linecap:butt;stroke-linejoin:miter;stroke-miterlimit:4;stroke-dasharray:none;stroke-opacity:1"
     d="m 250.535,-74.822 2.999,-3.001 -10.499,3.002 10.496,2.998 z" /></g><g
   transform="matrix(-1,-0.590019,-0.590019,1,0,405.944)"
   id="g132"><path
     inkscape:connector-curvature="0"
     id="path134"
     style="fill:#808080;fill-opacity:1;fill-rule:evenodd;stroke:#808080;stroke-width:0.68901002;stroke-linecap:butt;stroke-linejoin:miter;stroke-miterlimit:4;stroke-dasharray:none;stroke-opacity:1"
     d="m -69.923,-287.529 2.584,-2.585 -9.043,2.582 9.044,2.587 z" /></g><g
   transform="matrix(1,-0.58738,-0.58738,-1,0,405.944)"
   id="g140"><path
     inkscape:connector-curvature="0"
     id="path142"
     style="fill:#808080;fill-opacity:1;fill-rule:evenodd;stroke:#808080;stroke-width:0.68980497;stroke-linecap:butt;stroke-linejoin:miter;stroke-miterlimit:4;stroke-dasharray:none;stroke-opacity:1"
     d="m 171.589,145.474 2.587,-2.586 -9.055,2.588 9.054,2.585 z" /></g><g
   transform="matrix(0,-1,-1,0,0,405.944)"
   id="g144"><path
     inkscape:connector-curvature="0"
     id="path146"
     style="fill:#808080;fill-opacity:1;fill-rule:evenodd;stroke:#808080;stroke-width:0.80000001;stroke-linecap:butt;stroke-linejoin:miter;stroke-miterlimit:4;stroke-dasharray:none;stroke-opacity:1"
     d="m 249.965,-249.031 3,-3 -10.5,3 10.5,3 z" /></g><g
   id="g148"><g
     transform="matrix(1,0,0,-1,0,405.944)"
     id="g150"><path
       inkscape:connector-curvature="0"
       id="path158"
       style="fill:url(#linearGradient156);fill-opacity:1;fill-rule:evenodd;stroke:#000000;stroke-width:0.75;stroke-linecap:butt;stroke-linejoin:miter;stroke-miterlimit:4;stroke-dasharray:none;stroke-opacity:1"
       d="m 15.305,319.023 h 124.25 v 45.836 H 15.305 Z" /></g></g><text
   id="text162"
   style="font-variant:normal;font-weight:normal;font-size:11.99999905px;font-family:'DejaVu Sans';-inkscape-font-specification:DejaVuSans;writing-mode:lr-tb;fill:#000000;fill-opacity:1;fill-rule:nonzero;stroke:none"
   transform="scale(1,-1)"
   x="35.611881"
   y="-59.530098"><tspan
     id="tspan160"
     sodipodi:role="line"
     y="-59.530098"
     x="35.611881 43.987881 51.223881 59.99588 63.799881 68.02388 75.655876 83.251877 89.839882 94.543877 97.867882 105.19988 112.79588">CPU functions</tspan></text>

<g
   id="g164"><g
     transform="matrix(1,0,0,-1,0,405.944)"
     id="g166"><path
       inkscape:connector-curvature="0"
       id="path174"
       style="fill:url(#linearGradient172);fill-opacity:1;fill-rule:evenodd;stroke:#000000;stroke-width:0.75;stroke-linecap:butt;stroke-linejoin:miter;stroke-miterlimit:4;stroke-dasharray:none;stroke-opacity:1"
       d="m 186.906,319.023 h 124.246 v 45.836 H 186.906 Z" /></g></g><text
   id="text178"
   style="font-variant:normal;font-weight:normal;font-size:11.99999905px;font-family:'DejaVu Sans';-inkscape-font-specification:DejaVuSans;writing-mode:lr-tb;fill:#000000;fill-opacity:1;fill-rule:nonzero;stroke:none"
   transform="scale(1,-1)"
   x="206.75447"
   y="-59.530098"><tspan
     id="tspan176"
     sodipodi:role="line"
     y="-59.530098"
     x="206.75447 216.04247 223.27847 232.05046 235.85446 240.07846 247.67447 255.30646 261.89447 266.59845 269.92245 277.25446 284.85046">GPU functions</tspan></text>

<text
   id="text190"
   style="font-variant:normal;font-weight:normal;font-size:9px;font-family:'DejaVu Sans';-inkscape-font-specification:DejaVuSans;writing-mode:lr-tb;fill:#808080;fill-opacity:1;fill-rule:nonzero;stroke:none"
   transform="scale(1,-1)"
   x="191.08656"
   y="-332.61389"><tspan
     id="tspan180"
     sodipodi:role="line"
     y="-332.61389"
     x="191.08656 193.57956 199.27657 204.97356 210.50856 214.20757 216.70056 220.22856 224.93556 227.78856 230.95656 234.46657 239.96556 248.73157 251.58456 256.61557 262.12357 267.82056 273.52655 279.03455 283.74155 286.20755 290.88757 293.74057 299.41956 304.73856 308.29355 313.82855 319.52554 324.20557 326.69855 332.19754 337.89456 344.82455 348.35257 353.67157 359.37756">inherits from Pandas's ExtensionDtype</tspan><tspan
     id="tspan182"
     sodipodi:role="line"
     y="-321.36389"
     x="191.08656 194.59656 200.13156 205.83755 208.33057 213.01056 216.53856 222.07356 225.59256 231.12756 236.83356 239.68655 245.19456 249.87456 252.72755 258.26257 261.11557 264.64355 269.96255 275.66855 281.20355 284.05655 286.54956 292.24655 295.09955 301.83157 307.55557 316.32156 322.02756">registered as a type in Numba</tspan><tspan
     id="tspan184"
     sodipodi:role="line"
     y="-310.11389"
     x="191.08656 193.57956 199.08755 203.80356 209.12256 211.97556 217.29456 222.82956 226.52856 231.20856 233.70157 239.20056 244.89757 249.60457 252.45757 261.22357 266.73157 272.05057 274.90356 280.60956 286.14456 288.99756 296.37756 300.07657 305.58456 311.29056 316.99655 322.53156 328.23755 331.09055 336.59854 341.30554 344.15857 351.08856 356.59656 361.27655">lazy versions may be wrapped as Dask</tspan><tspan
     id="tspan186"
     sodipodi:role="line"
     y="-27.295296"
     x="20.020077 25.51907 31.225079 36.760082 40.459072 45.967083 49.495083 55.030071 59.710079 62.563076 68.06208 73.786079 76.639084 82.921082 88.348083 94.927078 97.807083 103.51308 109.01208 111.50508 117.20208 120.73008 126.26508 129.96408 191.14607 196.64508 202.35107 207.88608 211.58508 217.09308 220.62108 226.15608 230.83607 233.71608 239.21507 244.91208 247.76508 254.73108 260.15808 266.73709 269.61707 275.32309 280.82208 283.31506 289.01208 292.54007 298.07507 301.77408">operates on CPU pointersoperates on GPU pointers</tspan><tspan
     id="tspan188"
     sodipodi:role="line"
     y="-16.045296"
     x="188.56111 191.05411 196.56212 202.25911 207.95612 212.92412 218.62111 224.15611 228.83612 231.68912 236.61212 242.14711 245.69312 251.39012 256.92511 259.41812 264.09811 266.95111 269.44412 275.14111 278.69611 284.23111 287.7771 293.47412 298.98212 301.47513 303.96811">launches kernels internally</tspan></text>

<text
   xml:space="preserve"
   style="font-style:normal;font-weight:normal;font-size:12px;line-height:1.25;font-family:sans-serif;text-align:end;letter-spacing:0px;word-spacing:0px;text-anchor:end;fill:#000000;fill-opacity:1;stroke:none;stroke-width:0.75"
   x="-28.461832"
   y="-365.2543"
   id="text4669"
   transform="scale(1,-1)"><tspan
     sodipodi:role="line"
     id="tspan4667"
     x="-28.461832"
     y="-365.2543"
     style="font-style:normal;font-variant:normal;font-weight:normal;font-stretch:normal;font-size:11.99999905px;line-height:normal;font-family:'DejaVu Sans';-inkscape-font-specification:DejaVuSans;font-variant-ligatures:normal;font-variant-position:normal;font-variant-caps:normal;font-variant-numeric:normal;font-variant-alternates:normal;font-feature-settings:normal;text-indent:0;text-align:end;text-decoration:none;text-decoration-line:none;text-decoration-style:solid;text-decoration-color:#000000;letter-spacing:normal;word-spacing:normal;text-transform:none;writing-mode:lr-tb;direction:ltr;text-orientation:mixed;dominant-baseline:auto;baseline-shift:baseline;text-anchor:end;white-space:normal;shape-padding:0;opacity:1;vector-effect:none;fill:#000000;fill-opacity:1;stroke:none;stroke-width:1;stroke-linecap:butt;stroke-linejoin:miter;stroke-miterlimit:4;stroke-dasharray:none;stroke-dashoffset:0;stroke-opacity:1">Layer 1:</tspan></text>

<text
   transform="scale(1,-1)"
   id="text4744"
   y="-275.67114"
   x="-28.461832"
   style="font-style:normal;font-weight:normal;font-size:12px;line-height:1.25;font-family:sans-serif;text-align:end;letter-spacing:0px;word-spacing:0px;text-anchor:end;fill:#000000;fill-opacity:1;stroke:none;stroke-width:0.75"
   xml:space="preserve"><tspan
     style="font-style:normal;font-variant:normal;font-weight:normal;font-stretch:normal;font-size:11.99999905px;line-height:normal;font-family:'DejaVu Sans';-inkscape-font-specification:DejaVuSans;font-variant-ligatures:normal;font-variant-position:normal;font-variant-caps:normal;font-variant-numeric:normal;font-variant-alternates:normal;font-feature-settings:normal;text-indent:0;text-align:end;text-decoration:none;text-decoration-line:none;text-decoration-style:solid;text-decoration-color:#000000;letter-spacing:normal;word-spacing:normal;text-transform:none;writing-mode:lr-tb;direction:ltr;text-orientation:mixed;dominant-baseline:auto;baseline-shift:baseline;text-anchor:end;white-space:normal;shape-padding:0;opacity:1;vector-effect:none;fill:#000000;fill-opacity:1;stroke:none;stroke-width:1;stroke-linecap:butt;stroke-linejoin:miter;stroke-miterlimit:4;stroke-dasharray:none;stroke-dashoffset:0;stroke-opacity:1"
     y="-275.67114"
     x="-28.461832"
     id="tspan4742"
     sodipodi:role="line">Layer 2:</tspan></text>

<text
   xml:space="preserve"
   style="font-style:normal;font-weight:normal;font-size:12px;line-height:1.25;font-family:sans-serif;text-align:end;letter-spacing:0px;word-spacing:0px;text-anchor:end;fill:#000000;fill-opacity:1;stroke:none;stroke-width:0.75"
   x="-28.461832"
   y="-184.92491"
   id="text4748"
   transform="scale(1,-1)"><tspan
     sodipodi:role="line"
     id="tspan4746"
     x="-28.461832"
     y="-184.92491"
     style="font-style:normal;font-variant:normal;font-weight:normal;font-stretch:normal;font-size:11.99999905px;line-height:normal;font-family:'DejaVu Sans';-inkscape-font-specification:DejaVuSans;font-variant-ligatures:normal;font-variant-position:normal;font-variant-caps:normal;font-variant-numeric:normal;font-variant-alternates:normal;font-feature-settings:normal;text-indent:0;text-align:end;text-decoration:none;text-decoration-line:none;text-decoration-style:solid;text-decoration-color:#000000;letter-spacing:normal;word-spacing:normal;text-transform:none;writing-mode:lr-tb;direction:ltr;text-orientation:mixed;dominant-baseline:auto;baseline-shift:baseline;text-anchor:end;white-space:normal;shape-padding:0;opacity:1;vector-effect:none;fill:#000000;fill-opacity:1;stroke:none;stroke-width:1;stroke-linecap:butt;stroke-linejoin:miter;stroke-miterlimit:4;stroke-dasharray:none;stroke-dashoffset:0;stroke-opacity:1">Layer 3:</tspan></text>

<text
   transform="scale(1,-1)"
   id="text4752"
   y="-59.530098"
   x="-28.461832"
   style="font-style:normal;font-weight:normal;font-size:12px;line-height:1.25;font-family:sans-serif;text-align:end;letter-spacing:0px;word-spacing:0px;text-anchor:end;fill:#000000;fill-opacity:1;stroke:none;stroke-width:0.75"
   xml:space="preserve"><tspan
     style="font-style:normal;font-variant:normal;font-weight:normal;font-stretch:normal;font-size:11.99999905px;line-height:normal;font-family:'DejaVu Sans';-inkscape-font-specification:DejaVuSans;font-variant-ligatures:normal;font-variant-position:normal;font-variant-caps:normal;font-variant-numeric:normal;font-variant-alternates:normal;font-feature-settings:normal;text-indent:0;text-align:end;text-decoration:none;text-decoration-line:none;text-decoration-style:solid;text-decoration-color:#000000;letter-spacing:normal;word-spacing:normal;text-transform:none;writing-mode:lr-tb;direction:ltr;text-orientation:mixed;dominant-baseline:auto;baseline-shift:baseline;text-anchor:end;white-space:normal;shape-padding:0;opacity:1;vector-effect:none;fill:#000000;fill-opacity:1;stroke:none;stroke-width:1;stroke-linecap:butt;stroke-linejoin:miter;stroke-miterlimit:4;stroke-dasharray:none;stroke-dashoffset:0;stroke-opacity:1"
     y="-59.530098"
     x="-28.461832"
     id="tspan4750"
     sodipodi:role="line">Layer 4:</tspan></text>

<text
   id="text58"
   style="font-variant:normal;font-weight:normal;font-size:11.99999905px;font-family:'DejaVu Sans';-inkscape-font-specification:DejaVuSans;writing-mode:lr-tb;fill:#000000;fill-opacity:1;fill-rule:nonzero;stroke:none"
   transform="scale(1,-1)"
   x="103.53472"
   y="-118.48515"><tspan
     id="tspan56"
     sodipodi:role="line"
     y="-118.48515"
     x="103.53472 110.69872 117.79072 122.49472 129.87473 134.61472 142.21071 146.01471 151.55872 159.93471 165.44272 169.24672 172.57071 180.20271 184.90671 192.28671 197.2187 201.4427 208.78671 215.37471">extern &quot;C&quot; interface</tspan></text>

</g></svg>