<?xml version="1.0" encoding="UTF-8" standalone="no"?>
<!-- Created with Inkscape (http://www.inkscape.org/) -->

<svg
   xmlns:dc="http://purl.org/dc/elements/1.1/"
   xmlns:cc="http://creativecommons.org/ns#"
   xmlns:rdf="http://www.w3.org/1999/02/22-rdf-syntax-ns#"
   xmlns:svg="http://www.w3.org/2000/svg"
   xmlns="http://www.w3.org/2000/svg"
   xmlns:sodipodi="http://sodipodi.sourceforge.net/DTD/sodipodi-0.dtd"
   xmlns:inkscape="http://www.inkscape.org/namespaces/inkscape"
   version="1.1"
   id="svg2"
   xml:space="preserve"
   width="2383.0146"
   height="1260.7532"
   viewBox="0 0 2383.0145 1260.7531"
   sodipodi:docname="ttbarHDecayDiagram_expanded.svg"
   inkscape:version="0.92.3 (2405546, 2018-03-11)"
   inkscape:export-filename="/home/pivarski/irishep/awkward-1.0/docs/demos/img/ttbarHDecayDiagram_expanded.png"
   inkscape:export-xdpi="40.290001"
   inkscape:export-ydpi="40.290001"><metadata
     id="metadata8"><rdf:RDF><cc:Work
         rdf:about=""><dc:format>image/svg+xml</dc:format><dc:type
           rdf:resource="http://purl.org/dc/dcmitype/StillImage" /><dc:title></dc:title></cc:Work></rdf:RDF></metadata><defs
     id="defs6"><clipPath
       clipPathUnits="userSpaceOnUse"
       id="clipPath162"><path
         d="m 274.293,7.465 h 174 v 100.82 h -174 z"
         id="path160"
         inkscape:connector-curvature="0" /></clipPath><clipPath
       clipPathUnits="userSpaceOnUse"
       id="clipPath172"><path
         d="M 0,0 H 1333 V 712 H 0 Z"
         id="path170"
         inkscape:connector-curvature="0" /></clipPath><clipPath
       clipPathUnits="userSpaceOnUse"
       id="clipPath202"><path
         d="m 274.293,589.285 h 174 v 98.992 h -174 z"
         id="path200"
         inkscape:connector-curvature="0" /></clipPath><clipPath
       clipPathUnits="userSpaceOnUse"
       id="clipPath212"><path
         d="M 0,0 H 1333 V 712 H 0 Z"
         id="path210"
         inkscape:connector-curvature="0" /></clipPath><clipPath
       clipPathUnits="userSpaceOnUse"
       id="clipPath318"><path
         d="m 40.141,376.691 -4.754,-10.164 -7.297,10.02 0.129,-11.215 -10.926,5.859 4.984,-10.05 -12.386,0.539 8.851,-6.891 -11.394,-4.891 10.964,-2.367 -8.144,-9.347 10.906,2.621 -3.281,-11.953 8.691,7.093 2.227,-12.195 4.754,10.164 7.297,-10.019 -0.129,11.214 10.926,-5.859 -4.985,10.051 12.387,-0.539 -8.852,6.89 11.395,4.887 -10.965,2.371 8.145,9.348 -10.907,-2.621 3.282,11.953 -8.692,-7.094 z"
         id="path316"
         inkscape:connector-curvature="0" /></clipPath><radialGradient
       fx="4.4117651"
       fy="344.9093"
       cx="4.4117651"
       cy="344.9093"
       r="29.425665"
       gradientUnits="userSpaceOnUse"
       gradientTransform="matrix(1,0,0,0.979063,1560.0139,12.53277)"
       spreadMethod="pad"
       id="radialGradient326"><stop
         style="stop-opacity:1;stop-color:#dcec53"
         offset="0"
         id="stop322" /><stop
         style="stop-opacity:1;stop-color:#8f5110"
         offset="1"
         id="stop324" /></radialGradient><clipPath
       clipPathUnits="userSpaceOnUse"
       id="clipPath340"><path
         d="m 727.074,5 h 600 v 700.367 h -600 z"
         id="path338"
         inkscape:connector-curvature="0" /></clipPath><clipPath
       clipPathUnits="userSpaceOnUse"
       id="clipPath350"><path
         d="M 0,0 H 1333 V 712 H 0 Z"
         id="path348"
         inkscape:connector-curvature="0" /></clipPath><clipPath
       clipPathUnits="userSpaceOnUse"
       id="clipPath366"><path
         d="M 0,0 H 1333 V 712 H 0 Z"
         id="path364"
         inkscape:connector-curvature="0" /></clipPath><clipPath
       clipPathUnits="userSpaceOnUse"
       id="clipPath382"><path
         d="M 0,0 H 1333 V 712 H 0 Z"
         id="path380"
         inkscape:connector-curvature="0" /></clipPath><clipPath
       clipPathUnits="userSpaceOnUse"
       id="clipPath398"><path
         d="M 0,0 H 1333 V 712 H 0 Z"
         id="path396"
         inkscape:connector-curvature="0" /></clipPath><clipPath
       clipPathUnits="userSpaceOnUse"
       id="clipPath414"><path
         d="M 0,0 H 1333 V 712 H 0 Z"
         id="path412"
         inkscape:connector-curvature="0" /></clipPath><clipPath
       clipPathUnits="userSpaceOnUse"
       id="clipPath430"><path
         d="M 0,0 H 1333 V 712 H 0 Z"
         id="path428"
         inkscape:connector-curvature="0" /></clipPath><clipPath
       clipPathUnits="userSpaceOnUse"
       id="clipPath446"><path
         d="M 0,0 H 1333 V 712 H 0 Z"
         id="path444"
         inkscape:connector-curvature="0" /></clipPath><clipPath
       clipPathUnits="userSpaceOnUse"
       id="clipPath462"><path
         d="M 0,0 H 1333 V 712 H 0 Z"
         id="path460"
         inkscape:connector-curvature="0" /></clipPath><clipPath
       clipPathUnits="userSpaceOnUse"
       id="clipPath478"><path
         d="M 0,0 H 1333 V 712 H 0 Z"
         id="path476"
         inkscape:connector-curvature="0" /></clipPath><clipPath
       clipPathUnits="userSpaceOnUse"
       id="clipPath494"><path
         d="M 0,0 H 1333 V 712 H 0 Z"
         id="path492"
         inkscape:connector-curvature="0" /></clipPath><clipPath
       clipPathUnits="userSpaceOnUse"
       id="clipPath510"><path
         d="M 0,0 H 1333 V 712 H 0 Z"
         id="path508"
         inkscape:connector-curvature="0" /></clipPath><clipPath
       clipPathUnits="userSpaceOnUse"
       id="clipPath526"><path
         d="M 0,0 H 1333 V 712 H 0 Z"
         id="path524"
         inkscape:connector-curvature="0" /></clipPath><clipPath
       clipPathUnits="userSpaceOnUse"
       id="clipPath542"><path
         d="M 0,0 H 1333 V 712 H 0 Z"
         id="path540"
         inkscape:connector-curvature="0" /></clipPath><clipPath
       clipPathUnits="userSpaceOnUse"
       id="clipPath558"><path
         d="M 0,0 H 1333 V 712 H 0 Z"
         id="path556"
         inkscape:connector-curvature="0" /></clipPath><clipPath
       clipPathUnits="userSpaceOnUse"
       id="clipPath574"><path
         d="M 0,0 H 1333 V 712 H 0 Z"
         id="path572"
         inkscape:connector-curvature="0" /></clipPath><clipPath
       clipPathUnits="userSpaceOnUse"
       id="clipPath590"><path
         d="M 0,0 H 1333 V 712 H 0 Z"
         id="path588"
         inkscape:connector-curvature="0" /></clipPath><clipPath
       clipPathUnits="userSpaceOnUse"
       id="clipPath604"><path
         d="M 0,0 H 1333 V 712 H 0 Z"
         id="path602"
         inkscape:connector-curvature="0" /></clipPath><clipPath
       clipPathUnits="userSpaceOnUse"
       id="clipPath622"><path
         d="M 0,0 H 1333 V 712 H 0 Z"
         id="path620"
         inkscape:connector-curvature="0" /></clipPath><clipPath
       clipPathUnits="userSpaceOnUse"
       id="clipPath640"><path
         d="M 0,0 H 1333 V 712 H 0 Z"
         id="path638"
         inkscape:connector-curvature="0" /></clipPath><clipPath
       clipPathUnits="userSpaceOnUse"
       id="clipPath658"><path
         d="M 0,0 H 1333 V 712 H 0 Z"
         id="path656"
         inkscape:connector-curvature="0" /></clipPath><clipPath
       clipPathUnits="userSpaceOnUse"
       id="clipPath676"><path
         d="M 0,0 H 1333 V 712 H 0 Z"
         id="path674"
         inkscape:connector-curvature="0" /></clipPath><clipPath
       clipPathUnits="userSpaceOnUse"
       id="clipPath696"><path
         d="M 0,0 H 1333 V 712 H 0 Z"
         id="path694"
         inkscape:connector-curvature="0" /></clipPath><clipPath
       clipPathUnits="userSpaceOnUse"
       id="clipPath710"><path
         d="m 722.574,5 h 600 v 700.367 h -600 z"
         id="path708"
         inkscape:connector-curvature="0" /></clipPath><clipPath
       clipPathUnits="userSpaceOnUse"
       id="clipPath718"><path
         d="M 0,0 H 1333 V 712 H 0 Z"
         id="path716"
         inkscape:connector-curvature="0" /></clipPath><clipPath
       clipPathUnits="userSpaceOnUse"
       id="clipPath722"><path
         d="m 1038.211,376.691 -4.75,-10.164 -7.301,10.02 0.129,-11.215 -10.922,5.859 4.981,-10.05 -12.383,0.539 8.847,-6.891 -11.39,-4.891 10.965,-2.367 -8.145,-9.347 10.906,2.621 -3.281,-11.953 8.688,7.093 2.23,-12.195 4.75,10.164 7.301,-10.019 -0.129,11.214 10.926,-5.859 -4.985,10.051 12.387,-0.539 -8.851,6.89 11.394,4.887 -10.965,2.371 8.145,9.348 -10.91,-2.621 3.285,11.953 -8.692,-7.094 z"
         id="path720"
         inkscape:connector-curvature="0" /></clipPath><radialGradient
       fx="4.4117651"
       fy="344.9093"
       cx="4.4117651"
       cy="344.9093"
       r="29.425665"
       gradientUnits="userSpaceOnUse"
       gradientTransform="matrix(1,0,0,0.979063,1028.0875,12.53277)"
       spreadMethod="pad"
       id="radialGradient728"><stop
         style="stop-opacity:1;stop-color:#dcec53"
         offset="0"
         id="stop724" /><stop
         style="stop-opacity:1;stop-color:#8f5110"
         offset="1"
         id="stop726" /></radialGradient></defs><sodipodi:namedview
     pagecolor="#ffffff"
     bordercolor="#666666"
     borderopacity="1"
     objecttolerance="10"
     gridtolerance="10"
     guidetolerance="10"
     inkscape:pageopacity="0"
     inkscape:pageshadow="2"
     inkscape:window-width="1920"
     inkscape:window-height="1164"
     id="namedview4"
     showgrid="false"
     fit-margin-top="5"
     fit-margin-left="5"
     fit-margin-right="5"
     fit-margin-bottom="5"
     inkscape:zoom="0.49734508"
     inkscape:cx="1239.8068"
     inkscape:cy="419.04149"
     inkscape:window-x="0"
     inkscape:window-y="0"
     inkscape:window-maximized="1"
     inkscape:current-layer="g10"
     inkscape:snap-nodes="false" /><g
     id="g10"
     inkscape:groupmode="layer"
     inkscape:label="ttbarHDecayDiagram_expanded"
     transform="matrix(1.3333333,0,0,1.3333333,-651.28884,288.28112)"><rect
       style="opacity:1;vector-effect:none;fill:#fff3dd;fill-opacity:1;fill-rule:evenodd;stroke:#000000;stroke-width:3;stroke-linecap:butt;stroke-linejoin:miter;stroke-miterlimit:4;stroke-dasharray:none;stroke-dashoffset:0;stroke-opacity:1"
       id="rect2673"
       width="800.75189"
       height="138.73666"
       x="493.71664"
       y="-210.96085" /><rect
       y="-210.96085"
       x="1469.7257"
       height="138.73666"
       width="800.75189"
       id="rect2671"
       style="opacity:1;vector-effect:none;fill:#fff3dd;fill-opacity:1;fill-rule:evenodd;stroke:#000000;stroke-width:3;stroke-linecap:butt;stroke-linejoin:miter;stroke-miterlimit:4;stroke-dasharray:none;stroke-dashoffset:0;stroke-opacity:1" /><text
       id="text2587"
       y="-158.02051"
       x="1870.1737"
       style="font-style:normal;font-variant:normal;font-weight:normal;font-stretch:normal;font-size:48px;line-height:1.25;font-family:'Nimbus Sans L';-inkscape-font-specification:'Nimbus Sans L';text-align:center;letter-spacing:0px;word-spacing:0px;text-anchor:middle;fill:#000000;fill-opacity:1;stroke:none;stroke-width:0.75"
       xml:space="preserve"><tspan
         style="stroke-width:0.75;font-weight:bold"
         y="-158.02051"
         x="1870.1737"
         id="tspan2585"
         sodipodi:role="line">what we want to analyze:</tspan><tspan
         style="font-size:36px;stroke-width:0.75"
         y="-98.020508"
         x="1870.1737"
         sodipodi:role="line"
         id="tspan2591">final-state particles grouped by originating decay</tspan></text>
<g
       id="g2583"
       transform="translate(-7.7075387e-5)"><path
         inkscape:connector-curvature="0"
         id="path16"
         style="fill:none;stroke:#38a513;stroke-width:1.4346;stroke-linecap:butt;stroke-linejoin:miter;stroke-miterlimit:10;stroke-dasharray:10.759788, 10.759788;stroke-dashoffset:0;stroke-opacity:1"
         d="m 1563.52,349.117 h 153.074" /><path
         d="m 1651.051,314.715 c 0.328,-1.281 0.39,-1.641 3.015,-1.641 0.938,0 1.219,0 1.219,-0.719 0,-0.39 -0.39,-0.39 -0.5,-0.39 -1,0 -3.594,0.094 -4.594,0.094 -1.046,0 -3.578,-0.094 -4.625,-0.094 -0.281,0 -0.687,0 -0.687,0.703 0,0.406 0.328,0.406 1.016,0.406 0.062,0 0.75,0 1.359,0.063 0.641,0.078 0.969,0.109 0.969,0.578 0,0.14 -0.047,0.219 -0.141,0.687 l -2.156,8.75 h -10.938 l 2.11,-8.437 c 0.328,-1.281 0.437,-1.641 3.015,-1.641 0.938,0 1.219,0 1.219,-0.719 0,-0.39 -0.391,-0.39 -0.5,-0.39 -1,0 -3.578,0.094 -4.594,0.094 -1.031,0 -3.578,-0.094 -4.625,-0.094 -0.281,0 -0.672,0 -0.672,0.703 0,0.406 0.313,0.406 1,0.406 0.063,0 0.75,0 1.36,0.063 0.64,0.078 0.969,0.109 0.969,0.578 0,0.14 -0.032,0.25 -0.141,0.687 l -4.813,19.25 c -0.359,1.391 -0.421,1.688 -3.265,1.688 -0.641,0 -0.953,0 -0.953,0.719 0,0.39 0.422,0.39 0.5,0.39 1,0 3.547,-0.109 4.547,-0.109 0.75,0 1.546,0.031 2.296,0.031 0.782,0 1.579,0.078 2.329,0.078 0.296,0 0.718,0 0.718,-0.719 0,-0.39 -0.328,-0.39 -1,-0.39 -1.328,0 -2.328,0 -2.328,-0.641 0,-0.219 0.063,-0.406 0.11,-0.609 l 2.437,-9.828 h 10.938 c -1.516,5.953 -2.344,9.359 -2.485,9.89 -0.359,1.157 -1.031,1.188 -3.265,1.188 -0.532,0 -0.86,0 -0.86,0.719 0,0.39 0.438,0.39 0.5,0.39 1.016,0 3.563,-0.109 4.563,-0.109 0.75,0 1.547,0.031 2.297,0.031 0.781,0 1.578,0.078 2.328,0.078 0.281,0 0.718,0 0.718,-0.719 0,-0.39 -0.328,-0.39 -1,-0.39 -1.328,0 -2.343,0 -2.343,-0.641 0,-0.219 0.078,-0.406 0.109,-0.609 z"
         style="fill:#39a513;fill-opacity:1;fill-rule:nonzero;stroke:none"
         id="path18"
         inkscape:connector-curvature="0" /><path
         inkscape:connector-curvature="0"
         id="path22"
         style="fill:none;stroke:#ff0a0a;stroke-width:1.4346;stroke-linecap:butt;stroke-linejoin:miter;stroke-miterlimit:10;stroke-dasharray:none;stroke-opacity:1"
         d="M 1563.52,349.117 1671.758,240.879" /><path
         d="m 1626.992,285.652 -23.75,9.836 13.91,13.91 z"
         style="fill:#ff0707;fill-opacity:1;fill-rule:nonzero;stroke:none"
         id="path24"
         inkscape:connector-curvature="0" /><path
         d="m 1599.406,267.988 h 3.36 c 0.718,0 1.078,0 1.078,-0.718 0,-0.391 -0.36,-0.391 -1,-0.391 h -3.156 c 1.296,-5.094 1.468,-5.813 1.468,-6.031 0,-0.61 -0.422,-0.969 -1.031,-0.969 -0.109,0 -1.109,0.047 -1.437,1.297 l -1.407,5.703 h -3.359 c -0.719,0 -1.078,0 -1.078,0.672 0,0.437 0.281,0.437 1,0.437 H 1597 c -2.578,10.188 -2.719,10.797 -2.719,11.438 0,1.937 1.36,3.297 3.297,3.297 3.656,0 5.703,-5.235 5.703,-5.516 0,-0.359 -0.297,-0.359 -0.437,-0.359 -0.328,0 -0.36,0.109 -0.532,0.5 -1.546,3.734 -3.453,4.593 -4.671,4.593 -0.75,0 -1.11,-0.468 -1.11,-1.656 0,-0.859 0.078,-1.109 0.219,-1.719 z"
         style="fill:#ff0707;fill-opacity:1;fill-rule:nonzero;stroke:none"
         id="path26"
         inkscape:connector-curvature="0" /><path
         inkscape:connector-curvature="0"
         id="path30"
         style="fill:none;stroke:#0000ff;stroke-width:1.43499994;stroke-linecap:butt;stroke-linejoin:miter;stroke-miterlimit:5.4117651;stroke-dasharray:none;stroke-opacity:1"
         d="m 1563.52,349.117 108.238,108.242" /><path
         d="m 1601.012,386.609 9.84,23.746 13.91,-13.91 z"
         style="fill:#0000ff;fill-opacity:0.98514799;fill-rule:nonzero;stroke:none"
         id="path32"
         inkscape:connector-curvature="0" /><path
         d="m 1594.984,415.117 h 12.953 v 1.109 h -12.953 z"
         style="fill:#0000ff;fill-opacity:1;fill-rule:nonzero;stroke:none"
         id="path34"
         inkscape:connector-curvature="0" /><path
         d="m 1599.406,428.547 h 3.36 c 0.718,0 1.078,0 1.078,-0.719 0,-0.39 -0.36,-0.39 -1,-0.39 h -3.156 c 1.296,-5.094 1.468,-5.813 1.468,-6.032 0,-0.609 -0.422,-0.968 -1.031,-0.968 -0.109,0 -1.109,0.046 -1.437,1.296 l -1.407,5.704 h -3.359 c -0.719,0 -1.078,0 -1.078,0.671 0,0.438 0.281,0.438 1,0.438 H 1597 c -2.578,10.187 -2.719,10.797 -2.719,11.437 0,1.938 1.36,3.297 3.297,3.297 3.656,0 5.703,-5.234 5.703,-5.515 0,-0.36 -0.297,-0.36 -0.437,-0.36 -0.328,0 -0.36,0.11 -0.532,0.5 -1.546,3.735 -3.453,4.594 -4.671,4.594 -0.75,0 -1.11,-0.469 -1.11,-1.656 0,-0.86 0.078,-1.11 0.219,-1.719 z"
         style="fill:#0000ff;fill-opacity:1;fill-rule:nonzero;stroke:none"
         id="path36"
         inkscape:connector-curvature="0" /><path
         inkscape:connector-curvature="0"
         id="path40"
         style="fill:none;stroke:#38a513;stroke-width:1.4346;stroke-linecap:butt;stroke-linejoin:miter;stroke-miterlimit:10;stroke-dasharray:none;stroke-opacity:1"
         d="m 1716.594,349.117 1.285,-1.285 -0.297,-2.875 0.129,-2.445 0.863,-1.715 1.711,-0.859 2.449,-0.129 5.743,0.593 2.449,-0.125 1.711,-0.863 0.863,-1.711 0.129,-2.449 -0.297,-2.871 -0.297,-2.875 0.125,-2.446 0.863,-1.714 1.711,-0.864 2.45,-0.125 2.875,0.297 2.871,0.297 2.449,-0.125 1.711,-0.863 0.863,-1.715 0.125,-2.445 -0.297,-2.875 -0.297,-2.871 0.129,-2.45 0.86,-1.711 1.715,-0.863 2.449,-0.125 5.742,0.594 2.449,-0.125 1.711,-0.863 0.863,-1.715 0.129,-2.446 -0.297,-2.875 -0.3,-2.871 0.128,-2.449 0.864,-1.711 1.711,-0.863 2.449,-0.125 2.871,0.297 2.875,0.297 2.445,-0.129 1.715,-0.86 0.863,-1.714 0.125,-2.446 -0.296,-2.875 -0.297,-2.871 0.125,-2.449 0.863,-1.711 1.715,-0.863 2.445,-0.129 2.875,0.301 2.871,0.296 2.449,-0.128 1.711,-0.864 0.864,-1.711 0.129,-2.449 -0.301,-2.871 -0.297,-2.871 0.129,-2.449 0.863,-1.711 1.711,-0.863 2.449,-0.129 2.871,0.296 2.871,0.301 2.45,-0.129 1.711,-0.863 0.863,-1.711 0.129,-2.449 -0.594,-5.742 0.125,-2.45 0.863,-1.71 1.711,-0.864 2.45,-0.129 2.871,0.297 2.875,0.301 2.449,-0.129 1.711,-0.863 -0.512,-5.836" /><path
         d="m 1728.262,262.004 c 0.89,-1.578 1.75,-2.875 4.015,-3.047 0.313,-0.047 0.672,-0.047 0.672,-0.719 0,-0.14 -0.14,-0.39 -0.422,-0.39 -0.859,0 -1.875,0.093 -2.765,0.093 -1.219,0 -2.547,-0.093 -3.735,-0.093 -0.218,0 -0.672,0 -0.672,0.672 0,0.39 0.313,0.437 0.532,0.437 0.859,0.031 2.109,0.313 2.109,1.391 0,0.39 -0.172,0.687 -0.453,1.187 l -9.688,16.891 -1.328,-17.781 c -0.031,-0.719 -0.109,-1.657 2.516,-1.688 0.609,0 0.969,0 0.969,-0.719 0,-0.359 -0.407,-0.39 -0.547,-0.39 -1.438,0 -2.938,0.093 -4.375,0.093 -0.828,0 -2.938,-0.093 -3.766,-0.093 -0.203,0 -0.672,0 -0.672,0.703 0,0.406 0.36,0.406 0.86,0.406 1.578,0 1.828,0.203 1.89,0.891 l 0.219,2.765 -9.062,15.813 -1.375,-18.188 c 0,-0.422 0,-1.25 2.734,-1.281 0.359,0 0.75,0 0.75,-0.719 0,-0.39 -0.438,-0.39 -0.5,-0.39 -1.438,0 -2.938,0.093 -4.406,0.093 -1.266,0 -2.547,-0.093 -3.766,-0.093 -0.187,0 -0.656,0 -0.656,0.672 0,0.437 0.328,0.437 0.906,0.437 1.781,0 1.828,0.313 1.891,1.328 l 1.625,21.906 c 0.031,0.641 0.062,0.922 0.562,0.922 0.438,0 0.547,-0.203 0.86,-0.75 l 10.546,-18.281 1.329,18.109 c 0.078,0.75 0.14,0.922 0.578,0.922 0.468,0 0.672,-0.343 0.859,-0.672 z"
         style="fill:#39a513;fill-opacity:1;fill-rule:nonzero;stroke:none"
         id="path42"
         inkscape:connector-curvature="0" /><path
         d="m 1745.852,263.641 h 7.687 c 0.328,0 0.922,0 0.922,-0.61 0,-0.625 -0.578,-0.625 -0.922,-0.625 h -7.687 v -7.703 c 0,-0.328 0,-0.937 -0.61,-0.937 -0.625,0 -0.625,0.578 -0.625,0.937 v 7.703 h -7.703 c -0.328,0 -0.937,0 -0.937,0.61 0,0.625 0.578,0.625 0.937,0.625 h 7.703 v 7.703 c 0,0.328 0,0.937 0.61,0.937 0.625,0 0.625,-0.578 0.625,-0.937 z"
         style="fill:#39a513;fill-opacity:1;fill-rule:nonzero;stroke:none"
         id="path44"
         inkscape:connector-curvature="0" /><path
         inkscape:connector-curvature="0"
         id="path48"
         style="fill:none;stroke:#38a513;stroke-width:1.4346;stroke-linecap:butt;stroke-linejoin:miter;stroke-miterlimit:10;stroke-dasharray:none;stroke-opacity:1"
         d="m 1716.594,349.117 1.285,1.289 2.875,-0.297 2.445,0.125 1.715,0.864 0.863,1.711 0.125,2.449 -0.297,2.875 -0.296,2.871 0.129,2.449 0.859,1.711 1.715,0.863 2.445,0.125 2.875,-0.297 2.871,-0.296 2.449,0.125 1.711,0.863 0.864,1.715 0.128,2.445 -0.296,2.875 -0.301,2.871 0.129,2.449 0.863,1.711 1.711,0.864 2.449,0.125 2.871,-0.297 2.875,-0.297 2.446,0.129 1.714,0.859 0.86,1.715 0.129,2.445 -0.297,2.875 -0.297,2.871 0.125,2.45 0.863,1.71 1.715,0.864 2.445,0.129 2.875,-0.301 2.871,-0.297 2.45,0.129 1.711,0.863 0.863,1.711 0.125,2.449 -0.594,5.743 0.129,2.449 0.863,1.711 1.711,0.863 2.449,0.129 2.872,-0.301 2.871,-0.297 2.449,0.129 1.711,0.863 0.863,1.711 0.129,2.45 -0.594,5.742 0.125,2.449 0.864,1.711 1.71,0.863 2.45,0.129 2.871,-0.297 2.875,-0.301 2.445,0.129 1.715,0.864 0.863,1.711 0.125,2.449 -0.297,2.871 -0.297,2.875 0.129,2.445 0.86,1.715 1.715,0.859 2.445,0.129 2.875,-0.297 2.871,-0.296 2.449,0.125 1.711,0.863 0.863,1.711 0.129,2.449 -0.3,2.871 -0.297,2.875 0.129,2.445 0.863,1.715 5.828,-0.508" /><path
         d="m 1727.867,424.141 c 0.891,-1.579 1.75,-2.875 4.016,-3.047 0.312,-0.047 0.672,-0.047 0.672,-0.719 0,-0.141 -0.141,-0.391 -0.422,-0.391 -0.86,0 -1.875,0.094 -2.766,0.094 -1.219,0 -2.547,-0.094 -3.734,-0.094 -0.219,0 -0.672,0 -0.672,0.672 0,0.391 0.312,0.438 0.531,0.438 0.86,0.031 2.11,0.312 2.11,1.39 0,0.391 -0.172,0.688 -0.454,1.188 l -9.687,16.89 -1.328,-17.781 c -0.031,-0.719 -0.11,-1.656 2.515,-1.687 0.61,0 0.969,0 0.969,-0.719 0,-0.359 -0.406,-0.391 -0.547,-0.391 -1.437,0 -2.937,0.094 -4.375,0.094 -0.828,0 -2.937,-0.094 -3.765,-0.094 -0.203,0 -0.672,0 -0.672,0.704 0,0.406 0.359,0.406 0.859,0.406 1.578,0 1.828,0.203 1.891,0.89 l 0.219,2.766 -9.063,15.812 -1.375,-18.187 c 0,-0.422 0,-1.25 2.734,-1.281 0.36,0 0.75,0 0.75,-0.719 0,-0.391 -0.437,-0.391 -0.5,-0.391 -1.437,0 -2.937,0.094 -4.406,0.094 -1.265,0 -2.547,-0.094 -3.765,-0.094 -0.188,0 -0.657,0 -0.657,0.672 0,0.438 0.328,0.438 0.907,0.438 1.781,0 1.828,0.312 1.89,1.328 l 1.625,21.906 c 0.031,0.641 0.063,0.922 0.563,0.922 0.437,0 0.547,-0.203 0.859,-0.75 l 10.547,-18.281 1.328,18.109 c 0.078,0.75 0.141,0.922 0.578,0.922 0.469,0 0.672,-0.344 0.86,-0.672 z"
         style="fill:#39a513;fill-opacity:1;fill-rule:nonzero;stroke:none"
         id="path50"
         inkscape:connector-curvature="0" /><path
         d="m 1752.52,425.777 c 0.39,0 1,0 1,-0.609 0,-0.625 -0.579,-0.625 -1,-0.625 h -14.969 c -0.406,0 -1,0 -1,0.609 0,0.625 0.578,0.625 1,0.625 z"
         style="fill:#39a513;fill-opacity:1;fill-rule:nonzero;stroke:none"
         id="path52"
         inkscape:connector-curvature="0" /><path
         inkscape:connector-curvature="0"
         id="path56"
         style="fill:none;stroke:#38a513;stroke-width:1.4346;stroke-linecap:butt;stroke-linejoin:miter;stroke-miterlimit:10;stroke-dasharray:none;stroke-opacity:1"
         d="m 1824.832,240.879 153.074,91.844" /><path
         d="m 1881.547,274.906 15.301,20.653 10.121,-16.868 z"
         style="fill:#39a513;fill-opacity:1;fill-rule:nonzero;stroke:none"
         id="path58"
         inkscape:connector-curvature="0" /><path
         d="m 1850.516,324.484 c -0.078,0.11 -0.188,0.219 -0.188,0.36 0,0.172 0.219,0.468 0.438,0.468 0.172,0 0.281,-0.109 1.281,-1.124 0.297,-0.25 1.015,-0.922 1.297,-1.219 0.359,2.843 1.406,5.5 4.015,5.5 1.438,0 2.688,-0.828 3.438,-1.375 0.515,-0.36 2.187,-1.75 2.187,-2.11 0,-0.109 -0.109,-0.437 -0.422,-0.437 -0.109,0 -0.14,0.047 -0.468,0.328 -2.297,2.266 -3.625,2.797 -4.656,2.797 -1.626,0 -2.188,-1.86 -2.188,-4.656 0,-0.219 0.062,-1.875 0.172,-2.047 0.078,-0.11 0.078,-0.188 0.797,-0.891 2.906,-2.906 7.984,-8.969 7.984,-14.531 0,-0.609 0,-2.797 -2.109,-2.797 -2.969,0 -5.625,5.922 -5.985,6.734 -1.718,3.922 -2.843,8.11 -2.843,12.375 z m 5.093,-5.031 c 0.063,-0.391 1.61,-8.344 3.657,-12.547 0.968,-1.937 1.718,-3.359 2.859,-3.359 1.219,0 1.219,1.281 1.219,1.859 0,5.985 -6.016,12.266 -7.735,14.047 z"
         style="fill:#39a513;fill-opacity:1;fill-rule:nonzero;stroke:none"
         id="path60"
         inkscape:connector-curvature="0" /><path
         d="m 1876.508,309.344 h 7.687 c 0.328,0 0.922,0 0.922,-0.61 0,-0.625 -0.578,-0.625 -0.922,-0.625 h -7.687 v -7.703 c 0,-0.328 0,-0.937 -0.61,-0.937 -0.625,0 -0.625,0.578 -0.625,0.937 v 7.703 h -7.703 c -0.328,0 -0.937,0 -0.937,0.61 0,0.625 0.578,0.625 0.937,0.625 h 7.703 v 7.703 c 0,0.328 0,0.937 0.61,0.937 0.625,0 0.625,-0.578 0.625,-0.937 z"
         style="fill:#39a513;fill-opacity:1;fill-rule:nonzero;stroke:none"
         id="path62"
         inkscape:connector-curvature="0" /><path
         inkscape:connector-curvature="0"
         id="path66"
         style="fill:none;stroke:#38a513;stroke-width:1.4346;stroke-linecap:butt;stroke-linejoin:miter;stroke-miterlimit:10;stroke-dasharray:none;stroke-opacity:1"
         d="m 1824.832,240.879 h 153.074" /><path
         inkscape:connector-curvature="0"
         id="path70"
         style="fill:#38a513;fill-opacity:1;fill-rule:nonzero;stroke:#38a513;stroke-width:1.4346;stroke-linecap:butt;stroke-linejoin:miter;stroke-miterlimit:4;stroke-dasharray:none;stroke-opacity:1"
         d="m 1983.359,240.879 c 0,0.633 -0.515,1.148 -1.148,1.148 -0.633,0 -1.148,-0.515 -1.148,-1.148 0,-0.633 0.515,-1.149 1.148,-1.149 0.633,0 1.148,0.516 1.148,1.149 z" /><path
         inkscape:connector-curvature="0"
         id="path74"
         style="fill:#38a513;fill-opacity:1;fill-rule:nonzero;stroke:#38a513;stroke-width:1.4346;stroke-linecap:butt;stroke-linejoin:miter;stroke-miterlimit:4;stroke-dasharray:none;stroke-opacity:1"
         d="m 1988.379,240.879 c 0,0.633 -0.512,1.148 -1.145,1.148 -0.636,0 -1.148,-0.515 -1.148,-1.148 0,-0.633 0.512,-1.149 1.148,-1.149 0.633,0 1.145,0.516 1.145,1.149 z" /><path
         inkscape:connector-curvature="0"
         id="path78"
         style="fill:#38a513;fill-opacity:1;fill-rule:nonzero;stroke:#38a513;stroke-width:1.4346;stroke-linecap:butt;stroke-linejoin:miter;stroke-miterlimit:4;stroke-dasharray:none;stroke-opacity:1"
         d="m 1993.402,240.879 c 0,0.633 -0.515,1.148 -1.148,1.148 -0.633,0 -1.149,-0.515 -1.149,-1.148 0,-0.633 0.516,-1.149 1.149,-1.149 0.633,0 1.148,0.516 1.148,1.149 z" /><path
         d="m 1914.633,240.879 -23.746,-9.836 v 19.672 z"
         style="fill:#39a513;fill-opacity:1;fill-rule:nonzero;stroke:none"
         id="path80"
         inkscape:connector-curvature="0" /><path
         d="m 1899.395,212.758 c 0,-0.031 0,-0.391 -0.469,-0.391 -0.828,0 -3.438,0.281 -4.375,0.36 -0.281,0.031 -0.672,0.062 -0.672,0.703 0,0.437 0.312,0.437 0.859,0.437 1.719,0 1.782,0.25 1.782,0.61 0,0.25 -0.422,1.937 -0.672,2.906 l -2.188,8.781 c -0.14,0.547 -0.39,1.547 -0.39,1.609 0,0.407 0.359,0.438 0.562,0.438 h 0.5 c 2.516,-0.438 6.422,-1.828 10.125,-5.266 4.734,-4.422 5.703,-9.297 5.703,-9.609 0,-0.609 -0.437,-0.969 -1.047,-0.969 -0.281,0 -1.109,0.141 -1.39,1.172 -2.297,8.141 -7.75,12.156 -11.844,13.484 z"
         style="fill:#39a513;fill-opacity:1;fill-rule:nonzero;stroke:none"
         id="path82"
         inkscape:connector-curvature="0" /><path
         inkscape:connector-curvature="0"
         id="path86"
         style="fill:none;stroke:#38a513;stroke-width:1.4346;stroke-linecap:butt;stroke-linejoin:miter;stroke-miterlimit:10;stroke-dasharray:none;stroke-opacity:1"
         d="m 1824.832,457.359 h 153.074" /><path
         d="m 1877.898,457.359 23.747,9.836 V 447.52 Z"
         style="fill:#39a513;fill-opacity:1;fill-rule:nonzero;stroke:none"
         id="path88"
         inkscape:connector-curvature="0" /><path
         d="m 1895.863,469.238 h 12.953 v 1.109 h -12.953 z"
         style="fill:#39a513;fill-opacity:1;fill-rule:nonzero;stroke:none"
         id="path90"
         inkscape:connector-curvature="0" /><path
         d="m 1903.645,488.379 c 0.39,1.484 1.656,2.406 3.203,2.406 1.25,0 2.078,-0.828 2.64,-1.969 0.61,-1.296 1.078,-3.484 1.078,-3.546 0,-0.36 -0.312,-0.36 -0.421,-0.36 -0.36,0 -0.407,0.141 -0.5,0.641 -0.516,2.015 -1.188,4.453 -2.704,4.453 -0.75,0 -1.109,-0.469 -1.109,-1.656 0,-0.782 0.438,-2.469 0.719,-3.719 l 1,-3.875 c 0.109,-0.547 0.469,-1.906 0.609,-2.438 0.188,-0.828 0.547,-2.187 0.547,-2.406 0,-0.64 -0.5,-0.969 -1.047,-0.969 -0.172,0 -1.109,0.032 -1.39,1.25 -0.688,2.625 -2.266,8.891 -2.688,10.797 -0.047,0.141 -1.469,3.016 -4.094,3.016 -1.859,0 -2.218,-1.625 -2.218,-2.938 0,-2.015 1,-4.843 1.937,-7.328 0.422,-1.062 0.609,-1.578 0.609,-2.25 0,-1.609 -1.156,-2.937 -2.953,-2.937 -3.406,0 -4.718,5.187 -4.718,5.515 0,0.36 0.359,0.36 0.421,0.36 0.36,0 0.391,-0.078 0.579,-0.641 0.89,-3.125 2.25,-4.453 3.625,-4.453 0.312,0 0.89,0.031 0.89,1.188 0,0.859 -0.39,1.89 -0.609,2.437 -1.328,3.547 -2.078,5.766 -2.078,7.531 0,3.407 2.468,4.297 4.406,4.297 2.375,0 3.656,-1.609 4.266,-2.406 z"
         style="fill:#39a513;fill-opacity:1;fill-rule:nonzero;stroke:none"
         id="path92"
         inkscape:connector-curvature="0" /><path
         inkscape:connector-curvature="0"
         id="path96"
         style="fill:none;stroke:#38a513;stroke-width:1.4346;stroke-linecap:butt;stroke-linejoin:miter;stroke-miterlimit:10;stroke-dasharray:none;stroke-opacity:1"
         d="m 1824.832,457.359 153.074,-91.843" /><path
         d="m 1913.047,404.43 -25.426,3.781 10.121,16.871 z"
         style="fill:#39a513;fill-opacity:1;fill-rule:nonzero;stroke:none"
         id="path98"
         inkscape:connector-curvature="0" /><path
         d="m 1888.527,374.281 c 0,-0.047 0,-0.406 -0.468,-0.406 -0.532,0 -3.938,0.328 -4.547,0.406 -0.282,0.031 -0.5,0.203 -0.5,0.672 0,0.438 0.312,0.438 0.859,0.438 1.719,0 1.797,0.25 1.797,0.609 l -0.109,0.719 -2.157,8.484 c -0.64,-1.312 -1.687,-2.281 -3.297,-2.281 -4.203,0 -8.64,5.266 -8.64,10.5 0,3.375 1.969,5.734 4.765,5.734 0.719,0 2.516,-0.14 4.657,-2.687 0.297,1.515 1.547,2.687 3.265,2.687 1.266,0 2.078,-0.828 2.657,-1.968 0.609,-1.297 1.078,-3.485 1.078,-3.547 0,-0.36 -0.328,-0.36 -0.438,-0.36 -0.359,0 -0.39,0.141 -0.5,0.641 -0.609,2.328 -1.25,4.453 -2.719,4.453 -0.968,0 -1.078,-0.937 -1.078,-1.656 0,-0.86 0.078,-1.11 0.219,-1.719 z m -7.453,20.219 c -0.187,0.641 -0.187,0.719 -0.719,1.328 -1.578,1.969 -3.046,2.547 -4.046,2.547 -1.797,0 -2.297,-1.969 -2.297,-3.375 0,-1.797 1.14,-6.203 1.968,-7.859 1.11,-2.11 2.719,-3.438 4.157,-3.438 2.328,0 2.828,2.938 2.828,3.156 0,0.219 -0.063,0.438 -0.094,0.61 z"
         style="fill:#39a513;fill-opacity:1;fill-rule:nonzero;stroke:none"
         id="path100"
         inkscape:connector-curvature="0" /><path
         inkscape:connector-curvature="0"
         id="path104"
         style="fill:none;stroke:#ff0a0a;stroke-width:1.4346;stroke-linecap:butt;stroke-linejoin:miter;stroke-miterlimit:10;stroke-dasharray:none;stroke-opacity:1"
         d="m 1671.758,240.879 1.273,-1.274 -0.308,-2.859 0.113,-2.434 0.848,-1.695 1.699,-0.851 2.433,-0.114 2.86,0.313 2.855,0.312 2.434,-0.113 1.699,-0.852 0.852,-1.695 0.113,-2.433 -0.625,-5.719 0.113,-2.434 0.848,-1.699 1.699,-0.848 2.434,-0.113 2.859,0.313 2.859,0.308 2.434,-0.113 1.699,-0.848 0.848,-1.699 0.113,-2.434 -0.312,-2.859 -0.313,-2.855 0.113,-2.434 0.852,-1.699 1.699,-0.848 2.434,-0.113 2.855,0.308 2.86,0.313 2.433,-0.113 1.699,-0.848 0.848,-1.699 0.113,-2.434 -0.308,-2.859 -0.313,-2.86 0.114,-2.433 0.847,-1.699 1.699,-0.848 2.434,-0.113 5.719,0.625 2.433,-0.114 1.7,-0.851 0.847,-1.695 0.114,-2.434 -0.625,-5.719 0.113,-2.433 0.851,-1.7 1.696,-0.847 2.433,-0.114 2.86,0.313 2.859,0.309 2.434,-0.114 1.699,-0.847 0.848,-1.7 0.113,-2.433 -0.309,-2.86 -0.312,-2.855 0.113,-2.434 0.848,-1.699 1.699,-0.848 2.433,-0.113 2.86,0.309 2.859,0.312 2.434,-0.113 1.695,-0.848 0.852,-1.699 0.113,-2.433 -0.625,-5.719 0.113,-2.434 0.848,-1.699 1.699,-0.848 2.434,-0.113 5.718,0.625 2.434,-0.113 1.699,-0.852 0.848,-1.695 0.113,-2.434 -0.312,-2.859 -0.309,-2.859 0.113,-2.434 0.848,-1.699 1.699,-0.848 2.434,-0.113 2.859,0.312 2.856,0.309 2.433,-0.113 1.7,-0.848 0.851,-1.699 0.113,-2.434 -0.312,-2.859 -0.313,-2.856 0.114,-2.433 0.847,-1.7 1.7,-0.851 2.433,-0.113 5.719,0.625 2.433,-0.114 1.7,-0.847 0.847,-1.7 0.114,-2.433 -0.625,-5.719 0.113,-2.433 0.851,-1.7 1.7,-0.847 2.433,-0.114 2.856,0.313 2.859,0.312 2.434,-0.113 1.699,-0.851 -0.379,-5.961" /><path
         d="m 1705.848,131.348 c 0.89,-1.578 1.75,-2.875 4.015,-3.047 0.313,-0.047 0.672,-0.047 0.672,-0.719 0,-0.141 -0.14,-0.391 -0.422,-0.391 -0.859,0 -1.875,0.094 -2.765,0.094 -1.219,0 -2.547,-0.094 -3.735,-0.094 -0.218,0 -0.672,0 -0.672,0.672 0,0.391 0.313,0.438 0.532,0.438 0.859,0.031 2.109,0.312 2.109,1.39 0,0.391 -0.172,0.688 -0.453,1.188 l -9.688,16.891 -1.328,-17.782 c -0.031,-0.718 -0.109,-1.656 2.516,-1.687 0.609,0 0.969,0 0.969,-0.719 0,-0.359 -0.407,-0.391 -0.547,-0.391 -1.438,0 -2.938,0.094 -4.375,0.094 -0.828,0 -2.938,-0.094 -3.766,-0.094 -0.203,0 -0.672,0 -0.672,0.704 0,0.406 0.36,0.406 0.86,0.406 1.578,0 1.828,0.203 1.89,0.89 l 0.219,2.766 -9.062,15.813 -1.375,-18.188 c 0,-0.422 0,-1.25 2.734,-1.281 0.359,0 0.75,0 0.75,-0.719 0,-0.391 -0.438,-0.391 -0.5,-0.391 -1.438,0 -2.938,0.094 -4.406,0.094 -1.266,0 -2.547,-0.094 -3.766,-0.094 -0.187,0 -0.656,0 -0.656,0.672 0,0.438 0.328,0.438 0.906,0.438 1.781,0 1.828,0.312 1.891,1.328 l 1.625,21.906 c 0.031,0.641 0.062,0.922 0.562,0.922 0.438,0 0.547,-0.203 0.86,-0.75 l 10.546,-18.281 1.329,18.109 c 0.078,0.75 0.14,0.922 0.578,0.922 0.468,0 0.672,-0.344 0.859,-0.672 z"
         style="fill:#ff0808;fill-opacity:0.97647101;fill-rule:nonzero;stroke:none"
         id="path106"
         inkscape:connector-curvature="0" /><path
         d="m 1723.438,132.988 h 7.687 c 0.328,0 0.922,0 0.922,-0.609 0,-0.625 -0.578,-0.625 -0.922,-0.625 h -7.687 v -7.703 c 0,-0.328 0,-0.938 -0.61,-0.938 -0.625,0 -0.625,0.578 -0.625,0.938 v 7.703 h -7.703 c -0.328,0 -0.938,0 -0.938,0.609 0,0.625 0.579,0.625 0.938,0.625 h 7.703 v 7.703 c 0,0.329 0,0.938 0.609,0.938 0.626,0 0.626,-0.578 0.626,-0.938 z"
         style="fill:#ff0808;fill-opacity:0.97647101;fill-rule:nonzero;stroke:none"
         id="path108"
         inkscape:connector-curvature="0" /><path
         inkscape:connector-curvature="0"
         id="path112"
         style="fill:none;stroke:#ff0a0a;stroke-width:1.4346;stroke-linecap:butt;stroke-linejoin:miter;stroke-miterlimit:10;stroke-dasharray:none;stroke-opacity:1"
         d="m 1671.758,240.879 306.148,-76.535" /><path
         d="m 1838.031,199.312 -25.422,-3.781 4.77,19.082 z"
         style="fill:#ff0707;fill-opacity:1;fill-rule:nonzero;stroke:none"
         id="path114"
         inkscape:connector-curvature="0" /><path
         d="m 1805.344,165.461 c 0,-0.047 0,-0.406 -0.469,-0.406 -0.828,0 -3.453,0.297 -4.375,0.359 -0.297,0.047 -0.688,0.078 -0.688,0.719 0,0.437 0.329,0.437 0.86,0.437 1.719,0 1.797,0.25 1.797,0.61 0,0.25 -0.328,1.468 -0.5,2.218 l -2.938,11.688 c -0.437,1.797 -0.578,2.375 -0.578,3.625 0,3.406 1.891,5.625 4.547,5.625 4.234,0 8.641,-5.344 8.641,-10.5 0,-3.266 -1.891,-5.734 -4.766,-5.734 -1.641,0 -3.109,1.031 -4.187,2.14 z m -3.375,13.547 c 0.219,-0.781 0.219,-0.86 0.531,-1.25 1.766,-2.328 3.375,-2.875 4.312,-2.875 1.282,0 2.25,1.078 2.25,3.375 0,2.109 -1.187,6.234 -1.828,7.594 -1.187,2.406 -2.828,3.703 -4.234,3.703 -1.219,0 -2.391,-0.969 -2.391,-3.625 0,-0.688 0,-1.36 0.563,-3.625 z"
         style="fill:#ff0808;fill-opacity:0.97647101;fill-rule:nonzero;stroke:none"
         id="path116"
         inkscape:connector-curvature="0" /><path
         inkscape:connector-curvature="0"
         id="path120"
         style="fill:none;stroke:#0000ff;stroke-width:1.43499994;stroke-linecap:butt;stroke-linejoin:miter;stroke-miterlimit:5.4117651;stroke-dasharray:none;stroke-opacity:1"
         d="m 1671.758,457.359 1.273,1.274 2.86,-0.313 2.433,0.114 1.699,0.847 0.848,1.699 0.113,2.434 -0.308,2.859 -0.313,2.86 0.114,2.433 0.847,1.696 1.699,0.851 2.434,0.114 5.719,-0.625 2.433,0.113 1.696,0.847 0.851,1.7 0.114,2.433 -0.625,5.719 0.113,2.434 0.851,1.699 1.696,0.848 2.433,0.113 5.719,-0.625 2.434,0.113 1.699,0.852 0.848,1.699 0.113,2.433 -0.313,2.856 -0.308,2.859 0.113,2.434 0.848,1.699 1.699,0.848 2.433,0.113 2.86,-0.309 2.855,-0.312 2.438,0.113 1.695,0.848 0.852,1.699 0.113,2.434 -0.625,5.718 0.113,2.434 0.848,1.695 1.699,0.852 2.434,0.113 5.718,-0.625 2.434,0.113 1.699,0.848 0.848,1.699 0.113,2.434 -0.312,2.859 -0.309,2.86 0.113,2.433 0.848,1.7 1.699,0.847 2.434,0.113 2.859,-0.312 2.856,-0.309 2.433,0.11 1.7,0.851 0.847,1.7 0.113,2.433 -0.308,2.856 -0.313,2.859 0.114,2.434 0.847,1.699 1.7,0.847 2.433,0.114 2.859,-0.309 2.86,-0.312 2.433,0.113 1.7,0.848 0.847,1.699 0.114,2.433 -0.625,5.719 0.113,2.434 0.851,1.695 1.696,0.852 2.437,0.113 2.856,-0.313 2.859,-0.312 2.434,0.113 1.699,0.848 0.848,1.699 0.113,2.434 -0.309,2.859 -0.312,2.859 0.113,2.434 0.848,1.699 1.699,0.848 2.434,0.113 2.859,-0.312 2.859,-0.309 2.434,0.113 1.695,0.848 0.852,1.699 0.113,2.434 -0.312,2.855 -0.313,2.86 0.113,2.433 0.852,1.699 1.695,0.848 2.434,0.113 2.859,-0.308 2.86,-0.313 2.433,0.114 1.699,0.847 0.848,1.699 0.113,2.434 -0.312,2.859 -0.309,2.86 0.113,2.433 0.848,1.696 5.961,-0.375" /><path
         d="m 1705.449,554.789 c 0.891,-1.578 1.75,-2.875 4.016,-3.047 0.312,-0.047 0.672,-0.047 0.672,-0.719 0,-0.14 -0.141,-0.39 -0.422,-0.39 -0.86,0 -1.875,0.094 -2.766,0.094 -1.219,0 -2.547,-0.094 -3.734,-0.094 -0.219,0 -0.672,0 -0.672,0.672 0,0.39 0.312,0.437 0.531,0.437 0.86,0.031 2.11,0.313 2.11,1.391 0,0.39 -0.172,0.687 -0.454,1.187 l -9.687,16.891 -1.328,-17.781 c -0.031,-0.719 -0.11,-1.657 2.515,-1.688 0.61,0 0.969,0 0.969,-0.719 0,-0.359 -0.406,-0.39 -0.547,-0.39 -1.437,0 -2.937,0.094 -4.375,0.094 -0.828,0 -2.937,-0.094 -3.765,-0.094 -0.203,0 -0.672,0 -0.672,0.703 0,0.406 0.359,0.406 0.859,0.406 1.578,0 1.828,0.203 1.891,0.891 l 0.219,2.765 -9.063,15.813 -1.375,-18.188 c 0,-0.421 0,-1.25 2.734,-1.281 0.36,0 0.75,0 0.75,-0.719 0,-0.39 -0.437,-0.39 -0.5,-0.39 -1.437,0 -2.937,0.094 -4.406,0.094 -1.265,0 -2.547,-0.094 -3.765,-0.094 -0.188,0 -0.657,0 -0.657,0.672 0,0.437 0.328,0.437 0.907,0.437 1.781,0 1.828,0.313 1.89,1.328 l 1.625,21.907 c 0.031,0.64 0.063,0.921 0.563,0.921 0.437,0 0.547,-0.203 0.859,-0.75 l 10.547,-18.281 1.328,18.11 c 0.078,0.75 0.141,0.921 0.578,0.921 0.469,0 0.672,-0.343 0.86,-0.671 z"
         style="fill:#0000ff;fill-opacity:1;fill-rule:nonzero;stroke:none"
         id="path122"
         inkscape:connector-curvature="0" /><path
         d="m 1730.102,556.434 c 0.39,0 1,0 1,-0.61 0,-0.625 -0.579,-0.625 -1,-0.625 h -14.969 c -0.406,0 -1,0 -1,0.61 0,0.625 0.578,0.625 1,0.625 z"
         style="fill:#0000ff;fill-opacity:1;fill-rule:nonzero;stroke:none"
         id="path124"
         inkscape:connector-curvature="0" /><path
         inkscape:connector-curvature="0"
         id="path128"
         style="fill:none;stroke:#0000ff;stroke-width:1.43499994;stroke-linecap:butt;stroke-linejoin:miter;stroke-miterlimit:5.4117651;stroke-dasharray:none;stroke-opacity:1"
         d="m 1671.758,457.359 306.148,76.536" /><path
         d="m 1802.391,490.016 20.656,15.3 4.769,-19.086 z"
         style="fill:#0000ff;fill-opacity:1;fill-rule:nonzero;stroke:none"
         id="path130"
         inkscape:connector-curvature="0" /><path
         d="m 1797.965,507.504 h 12.953 v 1.109 h -12.953 z"
         style="fill:#0000ff;fill-opacity:1;fill-rule:nonzero;stroke:none"
         id="path132"
         inkscape:connector-curvature="0" /><path
         d="m 1805.344,513.641 c 0,-0.047 0,-0.407 -0.469,-0.407 -0.828,0 -3.453,0.297 -4.375,0.36 -0.297,0.047 -0.688,0.078 -0.688,0.718 0,0.438 0.329,0.438 0.86,0.438 1.719,0 1.797,0.25 1.797,0.609 0,0.25 -0.328,1.469 -0.5,2.219 l -2.938,11.688 c -0.437,1.796 -0.578,2.375 -0.578,3.625 0,3.406 1.891,5.625 4.547,5.625 4.234,0 8.641,-5.344 8.641,-10.5 0,-3.266 -1.891,-5.735 -4.766,-5.735 -1.641,0 -3.109,1.031 -4.187,2.141 z m -3.375,13.547 c 0.219,-0.782 0.219,-0.86 0.531,-1.25 1.766,-2.329 3.375,-2.876 4.312,-2.876 1.282,0 2.25,1.079 2.25,3.376 0,2.109 -1.187,6.234 -1.828,7.593 -1.187,2.407 -2.828,3.703 -4.234,3.703 -1.219,0 -2.391,-0.968 -2.391,-3.625 0,-0.687 0,-1.359 0.563,-3.625 z"
         style="fill:#0000ff;fill-opacity:1;fill-rule:nonzero;stroke:none"
         id="path134"
         inkscape:connector-curvature="0" /><path
         inkscape:connector-curvature="0"
         id="path138"
         style="fill:none;stroke:#ff0a0a;stroke-width:1.4346;stroke-linecap:butt;stroke-linejoin:miter;stroke-miterlimit:10;stroke-dasharray:none;stroke-opacity:1"
         d="m 1824.832,87.809 h 153.074" /><path
         inkscape:connector-curvature="0"
         id="path142"
         style="fill:#ff0a0a;fill-opacity:1;fill-rule:nonzero;stroke:#ff0a0a;stroke-width:1.4346;stroke-linecap:butt;stroke-linejoin:miter;stroke-miterlimit:4;stroke-dasharray:none;stroke-opacity:1"
         d="m 1983.359,87.809 c 0,0.632 -0.515,1.148 -1.148,1.148 -0.633,0 -1.148,-0.516 -1.148,-1.148 0,-0.633 0.515,-1.149 1.148,-1.149 0.633,0 1.148,0.516 1.148,1.149 z" /><path
         inkscape:connector-curvature="0"
         id="path146"
         style="fill:#ff0a0a;fill-opacity:1;fill-rule:nonzero;stroke:#ff0a0a;stroke-width:1.4346;stroke-linecap:butt;stroke-linejoin:miter;stroke-miterlimit:4;stroke-dasharray:none;stroke-opacity:1"
         d="m 1988.379,87.809 c 0,0.632 -0.512,1.148 -1.145,1.148 -0.636,0 -1.148,-0.516 -1.148,-1.148 0,-0.633 0.512,-1.149 1.148,-1.149 0.633,0 1.145,0.516 1.145,1.149 z" /><path
         inkscape:connector-curvature="0"
         id="path150"
         style="fill:#ff0a0a;fill-opacity:1;fill-rule:nonzero;stroke:#ff0a0a;stroke-width:1.4346;stroke-linecap:butt;stroke-linejoin:miter;stroke-miterlimit:4;stroke-dasharray:none;stroke-opacity:1"
         d="m 1993.402,87.809 c 0,0.632 -0.515,1.148 -1.148,1.148 -0.633,0 -1.149,-0.516 -1.149,-1.148 0,-0.633 0.516,-1.149 1.149,-1.149 0.633,0 1.148,0.516 1.148,1.149 z" /><path
         d="m 1914.637,87.809 -23.75,-9.84 v 19.676 z"
         style="fill:#ff0909;fill-opacity:0.97647101;fill-rule:nonzero;stroke:none"
         id="path152"
         inkscape:connector-curvature="0" /><path
         d="m 1899.395,100.473 c 0,-0.032 0,-0.391 -0.469,-0.391 -0.828,0 -3.438,0.281 -4.375,0.359 -0.281,0.032 -0.672,0.063 -0.672,0.704 0,0.437 0.312,0.437 0.859,0.437 1.719,0 1.782,0.25 1.782,0.609 0,0.25 -0.422,1.938 -0.672,2.907 l -2.188,8.781 c -0.14,0.547 -0.39,1.547 -0.39,1.609 0,0.407 0.359,0.438 0.562,0.438 h 0.5 c 2.516,-0.438 6.422,-1.828 10.125,-5.266 4.734,-4.422 5.703,-9.297 5.703,-9.609 0,-0.61 -0.437,-0.969 -1.047,-0.969 -0.281,0 -1.109,0.141 -1.39,1.172 -2.297,8.141 -7.75,12.156 -11.844,13.484 z"
         style="fill:#ff0808;fill-opacity:0.97647101;fill-rule:nonzero;stroke:none"
         id="path154"
         inkscape:connector-curvature="0" /><path
         d="M 1824.832,87.809 1977.906,11.27"
         style="fill:none;stroke:#ff0a0a;stroke-width:1.43499994;stroke-linecap:butt;stroke-linejoin:miter;stroke-miterlimit:10;stroke-dasharray:none;stroke-opacity:1"
         id="path178"
         inkscape:connector-curvature="0" /><path
         inkscape:connector-curvature="0"
         id="path180"
         style="fill:#ff0a0a;fill-opacity:0.97254902;fill-rule:nonzero;stroke:none"
         d="m 1880.352,60.047 25.636,-1.82 -8.797,-17.598 z" /><path
         inkscape:connector-curvature="0"
         id="path182"
         style="fill:#ff0808;fill-opacity:0.97647101;fill-rule:nonzero;stroke:none"
         d="m 1850.516,33.324 c -0.078,0.11 -0.188,0.219 -0.188,0.36 0,0.171 0.219,0.468 0.438,0.468 0.172,0 0.281,-0.109 1.281,-1.125 0.297,-0.25 1.015,-0.922 1.297,-1.218 0.359,2.843 1.406,5.5 4.015,5.5 1.438,0 2.688,-0.829 3.438,-1.375 0.515,-0.36 2.187,-1.75 2.187,-2.11 0,-0.109 -0.109,-0.437 -0.422,-0.437 -0.109,0 -0.14,0.047 -0.468,0.328 -2.297,2.265 -3.625,2.797 -4.656,2.797 -1.626,0 -2.188,-1.86 -2.188,-4.657 0,-0.218 0.062,-1.875 0.172,-2.046 0.078,-0.11 0.078,-0.188 0.797,-0.891 2.906,-2.906 7.984,-8.969 7.984,-14.531 0,-0.61 0,-2.797 -2.109,-2.797 -2.969,0 -5.625,5.922 -5.985,6.734 -1.718,3.922 -2.843,8.11 -2.843,12.375 z m 5.093,-5.031 c 0.063,-0.391 1.61,-8.344 3.657,-12.547 0.968,-1.937 1.718,-3.359 2.859,-3.359 1.219,0 1.219,1.281 1.219,1.859 0,5.984 -6.016,12.266 -7.735,14.047 z" /><path
         inkscape:connector-curvature="0"
         id="path184"
         style="fill:#ff0808;fill-opacity:0.97647101;fill-rule:nonzero;stroke:none"
         d="m 1876.508,18.188 h 7.687 c 0.328,0 0.922,0 0.922,-0.61 0,-0.625 -0.578,-0.625 -0.922,-0.625 h -7.687 V 9.25 c 0,-0.328 0,-0.938 -0.61,-0.938 -0.625,0 -0.625,0.579 -0.625,0.938 v 7.703 h -7.703 c -0.328,0 -0.937,0 -0.937,0.609 0,0.626 0.578,0.626 0.937,0.626 h 7.703 v 7.703 c 0,0.328 0,0.937 0.61,0.937 0.625,0 0.625,-0.578 0.625,-0.937 z" /><path
         inkscape:connector-curvature="0"
         id="path190"
         style="fill:none;stroke:#0000ff;stroke-width:1.43499994;stroke-linecap:butt;stroke-linejoin:miter;stroke-miterlimit:5.4117651;stroke-dasharray:none;stroke-opacity:1"
         d="m 1824.832,610.43 h 153.074" /><path
         d="m 1914.637,610.43 -23.75,-9.836 v 19.672 z"
         style="fill:#0000ff;fill-opacity:1;fill-rule:nonzero;stroke:none"
         id="path192"
         inkscape:connector-curvature="0" /><path
         d="m 1910.527,573.27 c 0,-0.047 0,-0.407 -0.468,-0.407 -0.532,0 -3.938,0.328 -4.547,0.407 -0.282,0.031 -0.5,0.203 -0.5,0.671 0,0.438 0.312,0.438 0.859,0.438 1.719,0 1.797,0.25 1.797,0.609 l -0.109,0.719 -2.157,8.484 c -0.64,-1.312 -1.687,-2.281 -3.297,-2.281 -4.203,0 -8.64,5.266 -8.64,10.5 0,3.375 1.969,5.735 4.765,5.735 0.719,0 2.516,-0.141 4.657,-2.688 0.297,1.516 1.547,2.688 3.265,2.688 1.266,0 2.078,-0.829 2.657,-1.969 0.609,-1.297 1.078,-3.485 1.078,-3.547 0,-0.359 -0.328,-0.359 -0.438,-0.359 -0.359,0 -0.39,0.14 -0.5,0.64 -0.609,2.328 -1.25,4.453 -2.719,4.453 -0.968,0 -1.078,-0.937 -1.078,-1.656 0,-0.859 0.078,-1.109 0.219,-1.719 z m -7.453,20.218 c -0.187,0.641 -0.187,0.719 -0.719,1.328 -1.578,1.969 -3.046,2.547 -4.046,2.547 -1.797,0 -2.297,-1.968 -2.297,-3.375 0,-1.797 1.14,-6.203 1.968,-7.859 1.11,-2.109 2.719,-3.438 4.157,-3.438 2.328,0 2.828,2.938 2.828,3.157 0,0.218 -0.063,0.437 -0.094,0.609 z"
         style="fill:#0000ff;fill-opacity:1;fill-rule:nonzero;stroke:none"
         id="path194"
         inkscape:connector-curvature="0" /><path
         d="m 1824.832,610.43 153.074,76.535"
         style="fill:none;stroke:#0000ff;stroke-width:1.43499994;stroke-linecap:butt;stroke-linejoin:miter;stroke-miterlimit:5.4117651;stroke-dasharray:none;stroke-opacity:1"
         id="path218"
         inkscape:connector-curvature="0" /><path
         inkscape:connector-curvature="0"
         id="path220"
         style="fill:#0000ff;fill-opacity:1;fill-rule:nonzero;stroke:none"
         d="m 1880.352,638.188 16.839,19.417 8.797,-17.593 z" /><path
         inkscape:connector-curvature="0"
         id="path222"
         style="fill:#0000ff;fill-opacity:1;fill-rule:nonzero;stroke:none"
         d="m 1872.926,660.574 h 12.953 v 1.109 h -12.953 z" /><path
         inkscape:connector-curvature="0"
         id="path224"
         style="fill:#0000ff;fill-opacity:1;fill-rule:nonzero;stroke:none"
         d="m 1880.707,679.715 c 0.391,1.484 1.656,2.406 3.203,2.406 1.25,0 2.078,-0.828 2.641,-1.969 0.609,-1.297 1.078,-3.484 1.078,-3.547 0,-0.359 -0.313,-0.359 -0.422,-0.359 -0.359,0 -0.406,0.141 -0.5,0.641 -0.516,2.015 -1.187,4.453 -2.703,4.453 -0.75,0 -1.109,-0.469 -1.109,-1.656 0,-0.782 0.437,-2.469 0.718,-3.719 l 1,-3.875 c 0.11,-0.547 0.469,-1.906 0.61,-2.438 0.187,-0.828 0.547,-2.187 0.547,-2.406 0,-0.641 -0.5,-0.969 -1.047,-0.969 -0.172,0 -1.11,0.032 -1.391,1.25 -0.687,2.625 -2.266,8.891 -2.687,10.797 -0.047,0.141 -1.469,3.016 -4.094,3.016 -1.86,0 -2.219,-1.625 -2.219,-2.938 0,-2.015 1,-4.843 1.938,-7.328 0.421,-1.062 0.609,-1.578 0.609,-2.25 0,-1.609 -1.156,-2.937 -2.953,-2.937 -3.406,0 -4.719,5.187 -4.719,5.515 0,0.36 0.359,0.36 0.422,0.36 0.359,0 0.391,-0.078 0.578,-0.641 0.891,-3.125 2.25,-4.453 3.625,-4.453 0.313,0 0.891,0.031 0.891,1.187 0,0.86 -0.391,1.891 -0.61,2.438 -1.328,3.547 -2.078,5.766 -2.078,7.531 0,3.406 2.469,4.297 4.406,4.297 2.375,0 3.657,-1.609 4.266,-2.406 z" /><path
         inkscape:connector-curvature="0"
         id="path230"
         style="fill:none;stroke:#ff0a0a;stroke-width:1.43499994;stroke-linecap:butt;stroke-linejoin:miter;stroke-miterlimit:4;stroke-dasharray:none;stroke-opacity:1"
         d="m 1977.906,11.27 h 225.41" /><path
         inkscape:connector-curvature="0"
         id="path234"
         style="fill:none;stroke:#ff0a0a;stroke-width:1.43499994;stroke-linecap:butt;stroke-linejoin:miter;stroke-miterlimit:4;stroke-dasharray:none;stroke-opacity:1"
         d="m 2203.316,121.977 -225.41,42.367 225.41,-25.699" /><path
         inkscape:connector-curvature="0"
         id="path238"
         style="fill:none;stroke:#ff0a0a;stroke-width:1.43499994;stroke-linecap:butt;stroke-linejoin:miter;stroke-miterlimit:4;stroke-dasharray:none;stroke-opacity:1"
         d="m 2203.316,189.836 -225.41,-25.492 225.41,11.207" /><path
         inkscape:connector-curvature="0"
         id="path242"
         style="fill:none;stroke:#ff0a0a;stroke-width:1.43499994;stroke-linecap:butt;stroke-linejoin:miter;stroke-miterlimit:4;stroke-dasharray:none;stroke-opacity:1"
         d="m 2203.316,148.168 -225.41,16.176 225.41,-0.699" /><path
         inkscape:connector-curvature="0"
         id="path246"
         style="fill:none;stroke:#38a513;stroke-width:1.43499994;stroke-linecap:butt;stroke-linejoin:miter;stroke-miterlimit:4;stroke-dasharray:none;stroke-opacity:1"
         d="m 2203.316,341.734 -225.41,23.782 225.41,-17.59" /><path
         inkscape:connector-curvature="0"
         id="path250"
         style="fill:none;stroke:#38a513;stroke-width:1.43499994;stroke-linecap:butt;stroke-linejoin:miter;stroke-miterlimit:4;stroke-dasharray:none;stroke-opacity:1"
         d="m 2203.316,356.5 -225.41,9.016 225.41,3.445" /><path
         inkscape:connector-curvature="0"
         id="path254"
         style="fill:none;stroke:#38a513;stroke-width:1.43499994;stroke-linecap:butt;stroke-linejoin:miter;stroke-miterlimit:4;stroke-dasharray:none;stroke-opacity:1"
         d="m 2203.316,392.215 -225.41,-26.699 225.41,13.605" /><path
         inkscape:connector-curvature="0"
         id="path258"
         style="fill:none;stroke:#39a513;stroke-width:1.43499994;stroke-linecap:butt;stroke-linejoin:miter;stroke-miterlimit:5.4117651;stroke-dasharray:none;stroke-opacity:1"
         d="m 2203.316,431.504 -225.41,25.855 225.41,40.809" /><path
         inkscape:connector-curvature="0"
         id="path262"
         style="fill:none;stroke:#39a513;stroke-width:1.43499994;stroke-linecap:butt;stroke-linejoin:miter;stroke-miterlimit:5.4117651;stroke-dasharray:none;stroke-opacity:1"
         d="m 2203.316,485.074 -225.41,-27.715 225.41,14.618" /><path
         inkscape:connector-curvature="0"
         id="path266"
         style="fill:none;stroke:#39a513;stroke-width:1.43499994;stroke-linecap:butt;stroke-linejoin:miter;stroke-miterlimit:5.4117651;stroke-dasharray:none;stroke-opacity:1"
         d="m 1977.906,457.359 225.41,-6.808" /><path
         inkscape:connector-curvature="0"
         id="path270"
         style="fill:none;stroke:#0000ff;stroke-width:1.43499994;stroke-linecap:butt;stroke-linejoin:miter;stroke-miterlimit:5.4117651;stroke-dasharray:none;stroke-opacity:1"
         d="m 2203.316,516.027 -225.41,17.868 225.41,51.179" /><path
         inkscape:connector-curvature="0"
         id="path274"
         style="fill:none;stroke:#0000ff;stroke-width:1.43499994;stroke-linecap:butt;stroke-linejoin:miter;stroke-miterlimit:5.4117651;stroke-dasharray:none;stroke-opacity:1"
         d="m 2203.316,568.406 -225.41,-34.511 225.41,20.226" /><path
         inkscape:connector-curvature="0"
         id="path278"
         style="fill:none;stroke:#0000ff;stroke-width:1.43499994;stroke-linecap:butt;stroke-linejoin:miter;stroke-miterlimit:5.4117651;stroke-dasharray:none;stroke-opacity:1"
         d="m 2203.316,541.027 -225.41,-7.132 225.41,-5.965" /><path
         inkscape:connector-curvature="0"
         id="path282"
         style="fill:none;stroke:#0000ff;stroke-width:1.43499994;stroke-linecap:butt;stroke-linejoin:miter;stroke-miterlimit:5.4117651;stroke-dasharray:none;stroke-opacity:1"
         d="m 2203.316,593.324 -225.41,17.106 225.41,-9.848" /><path
         inkscape:connector-curvature="0"
         id="path286"
         style="fill:none;stroke:#0000ff;stroke-width:1.43499994;stroke-linecap:butt;stroke-linejoin:miter;stroke-miterlimit:5.4117651;stroke-dasharray:none;stroke-opacity:1"
         d="m 2203.316,632.031 -225.41,-21.601 225.41,6.601" /><path
         inkscape:connector-curvature="0"
         id="path290"
         style="fill:none;stroke:#0000ff;stroke-width:1.43499994;stroke-linecap:butt;stroke-linejoin:miter;stroke-miterlimit:5.4117651;stroke-dasharray:none;stroke-opacity:1"
         d="m 2203.316,608.805 -225.41,1.625 225.41,15.312" /><path
         inkscape:connector-curvature="0"
         id="path294"
         style="fill:none;stroke:#0000ff;stroke-width:1.43499994;stroke-linecap:butt;stroke-linejoin:miter;stroke-miterlimit:5.4117651;stroke-dasharray:none;stroke-opacity:1"
         d="m 1977.906,610.43 225.41,11.925" /><path
         inkscape:connector-curvature="0"
         id="path298"
         style="fill:none;stroke:#0000ff;stroke-width:1.43499994;stroke-linecap:butt;stroke-linejoin:miter;stroke-miterlimit:5.4117651;stroke-dasharray:none;stroke-opacity:1"
         d="m 2203.316,661.066 -225.41,25.899 225.41,19.101" /><path
         inkscape:connector-curvature="0"
         id="path302"
         style="fill:none;stroke:#0000ff;stroke-width:1.43499994;stroke-linecap:butt;stroke-linejoin:miter;stroke-miterlimit:5.4117651;stroke-dasharray:none;stroke-opacity:1"
         d="m 2203.316,682.84 -225.41,4.125 225.41,9.422" /><path
         inkscape:connector-curvature="0"
         id="path306"
         style="fill:none;stroke:#0000ff;stroke-width:1.43499994;stroke-linecap:butt;stroke-linejoin:miter;stroke-miterlimit:5.4117651;stroke-dasharray:none;stroke-opacity:1"
         d="m 2203.316,672.676 -225.41,14.289 225.41,2.648" /><path
         inkscape:connector-curvature="0"
         id="path310"
         style="fill:none;stroke:#38a513;stroke-width:1.43499994;stroke-linecap:butt;stroke-linejoin:miter;stroke-miterlimit:4;stroke-dasharray:none;stroke-opacity:1"
         d="m 1977.906,332.723 h 226.403" /><path
         inkscape:connector-curvature="0"
         id="path328"
         style="fill:url(#radialGradient326);stroke:none"
         d="m 1570.141,376.691 -4.754,-10.164 -7.297,10.02 0.129,-11.215 -10.926,5.859 4.984,-10.05 -12.386,0.539 8.851,-6.891 -11.394,-4.891 10.964,-2.367 -8.144,-9.347 10.906,2.621 -3.281,-11.953 8.691,7.093 2.227,-12.195 4.754,10.164 7.297,-10.019 -0.129,11.214 10.926,-5.859 -4.985,10.051 12.387,-0.539 -8.852,6.89 11.395,4.887 -10.965,2.371 8.145,9.348 -10.907,-2.621 3.282,11.953 -8.692,-7.094 z" /><path
         inkscape:connector-curvature="0"
         id="path332"
         style="fill:none;stroke:#a56a13;stroke-width:1.43499994;stroke-linecap:round;stroke-linejoin:miter;stroke-miterlimit:5.4117651;stroke-dasharray:none;stroke-opacity:1"
         d="m 1570.141,376.691 -4.754,-10.164 -7.297,10.02 0.129,-11.215 -10.926,5.859 4.984,-10.05 -12.386,0.539 8.851,-6.891 -11.394,-4.891 10.964,-2.367 -8.144,-9.347 10.906,2.621 -3.281,-11.953 8.691,7.093 2.227,-12.195 4.754,10.164 7.297,-10.019 -0.129,11.214 10.926,-5.859 -4.985,10.051 12.387,-0.539 -8.852,6.89 11.395,4.887 -10.965,2.371 8.145,9.348 -10.907,-2.621 3.282,11.953 -8.692,-7.094 z" /></g><g
       id="g2496"
       transform="translate(-135)"><path
         d="m 861.633,709.781 c 0,0 0,2.203 172.058,-357.355 L 912.367,709.781"
         style="fill:none;stroke:#0000ff;stroke-width:1.43499994;stroke-linecap:butt;stroke-linejoin:miter;stroke-miterlimit:4;stroke-dasharray:none;stroke-opacity:1"
         id="path356"
         inkscape:connector-curvature="0" /><path
         d="M 895.824,710.883 1033.691,352.426 875.969,713.09"
         style="fill:none;stroke:#0000ff;stroke-width:1.43499994;stroke-linecap:butt;stroke-linejoin:miter;stroke-miterlimit:4;stroke-dasharray:none;stroke-opacity:1"
         id="path372"
         inkscape:connector-curvature="0" /><path
         d="M 1033.691,352.426 848.395,709.781"
         style="fill:none;stroke:#0000ff;stroke-width:1.43499994;stroke-linecap:butt;stroke-linejoin:miter;stroke-miterlimit:4;stroke-dasharray:none;stroke-opacity:1"
         id="path388"
         inkscape:connector-curvature="0" /><path
         d="M 1280.75,718.602 1033.691,352.426 1327.074,705.367"
         style="fill:none;stroke:#0000ff;stroke-width:1.43499994;stroke-linecap:butt;stroke-linejoin:miter;stroke-miterlimit:4;stroke-dasharray:none;stroke-opacity:1"
         id="path404"
         inkscape:connector-curvature="0" /><path
         d="M 1300.602,707.574 1033.691,352.426 1335.895,684.41"
         style="fill:none;stroke:#0000ff;stroke-width:1.43499994;stroke-linecap:butt;stroke-linejoin:miter;stroke-miterlimit:4;stroke-dasharray:none;stroke-opacity:1"
         id="path420"
         inkscape:connector-curvature="0" /><path
         d="m 1033.691,352.426 237.133,372.793"
         style="fill:none;stroke:#0000ff;stroke-width:1.43499994;stroke-linecap:butt;stroke-linejoin:miter;stroke-miterlimit:4;stroke-dasharray:none;stroke-opacity:1"
         id="path436"
         inkscape:connector-curvature="0" /><path
         d="m 714.941,230 318.75,122.426 z"
         style="fill:none;stroke:#0000ff;stroke-width:1.43499994;stroke-linecap:butt;stroke-linejoin:miter;stroke-miterlimit:4;stroke-dasharray:none;stroke-opacity:1"
         id="path452"
         inkscape:connector-curvature="0" /><path
         d="M 710.527,184.781 1033.691,352.426 703.91,205.734"
         style="fill:none;stroke:#0000ff;stroke-width:1.43499994;stroke-linecap:butt;stroke-linejoin:miter;stroke-miterlimit:4;stroke-dasharray:none;stroke-opacity:1"
         id="path468"
         inkscape:connector-curvature="0" /><path
         d="M 700.602,243.234 1033.691,352.426 698.395,189.191"
         style="fill:none;stroke:#0000ff;stroke-width:1.43499994;stroke-linecap:butt;stroke-linejoin:miter;stroke-miterlimit:4;stroke-dasharray:none;stroke-opacity:1"
         id="path484"
         inkscape:connector-curvature="0" /><path
         d="M 1033.691,352.426 698.395,163.824"
         style="fill:none;stroke:#0000ff;stroke-width:1.43499994;stroke-linecap:butt;stroke-linejoin:miter;stroke-miterlimit:4;stroke-dasharray:none;stroke-opacity:1"
         id="path500"
         inkscape:connector-curvature="0" /><path
         d="M 743.617,713.09 1033.691,352.426 713.836,716.398"
         style="fill:none;stroke:#39a513;stroke-width:1.07624996;stroke-linecap:butt;stroke-linejoin:miter;stroke-miterlimit:4;stroke-dasharray:none;stroke-opacity:1"
         id="path516"
         inkscape:connector-curvature="0" /><path
         d="M 722.66,682.207 1033.691,352.426 718.25,655.734"
         style="fill:none;stroke:#39a513;stroke-width:1.07624996;stroke-linecap:butt;stroke-linejoin:miter;stroke-miterlimit:4;stroke-dasharray:none;stroke-opacity:1"
         id="path532"
         inkscape:connector-curvature="0" /><path
         d="M 689.574,657.941 1033.691,352.426 773.395,696.543"
         style="fill:none;stroke:#39a513;stroke-width:1.07624996;stroke-linecap:butt;stroke-linejoin:miter;stroke-miterlimit:4;stroke-dasharray:none;stroke-opacity:1"
         id="path548"
         inkscape:connector-curvature="0" /><path
         d="M 707.219,78.898 1033.691,352.426 755.75,-2.719"
         style="fill:none;stroke:#39a513;stroke-width:1.07624996;stroke-linecap:butt;stroke-linejoin:miter;stroke-miterlimit:4;stroke-dasharray:none;stroke-opacity:1"
         id="path564"
         inkscape:connector-curvature="0" /><path
         d="m 714.941,33.676 318.75,318.75 -307.722,-360.66"
         style="fill:none;stroke:#39a513;stroke-width:1.07624996;stroke-linecap:butt;stroke-linejoin:miter;stroke-miterlimit:4;stroke-dasharray:none;stroke-opacity:1"
         id="path580"
         inkscape:connector-curvature="0" /><path
         d="M 781.117,2.793 1033.691,352.426 713.836,54.633"
         style="fill:none;stroke:#39a513;stroke-width:1.07624996;stroke-linecap:butt;stroke-linejoin:miter;stroke-miterlimit:4;stroke-dasharray:none;stroke-opacity:1"
         id="path596"
         inkscape:connector-curvature="0" /><path
         d="M 927.809,-17.059 1033.691,352.426 959.793,-51.25"
         style="fill:none;stroke:#ff0808;stroke-width:1.07624996;stroke-linecap:butt;stroke-linejoin:miter;stroke-miterlimit:4;stroke-dasharray:none;stroke-opacity:0.99215698"
         id="path606"
         inkscape:connector-curvature="0" /><path
         d="m 986.266,-56.766 47.425,409.192 -16.546,-410.293"
         style="fill:none;stroke:#ff0808;stroke-width:1.07624996;stroke-linecap:butt;stroke-linejoin:miter;stroke-miterlimit:4;stroke-dasharray:none;stroke-opacity:0.99215698"
         id="path624"
         inkscape:connector-curvature="0" /><path
         d="M 1034.793,-71.102 1033.691,352.426 971.926,-55.66"
         style="fill:none;stroke:#ff0808;stroke-width:1.07624996;stroke-linecap:butt;stroke-linejoin:miter;stroke-miterlimit:4;stroke-dasharray:none;stroke-opacity:0.99215698"
         id="path642"
         inkscape:connector-curvature="0" /><path
         d="M 1033.691,352.426 941.043,-43.531"
         style="fill:none;stroke:#ff0808;stroke-width:1.07624996;stroke-linecap:butt;stroke-linejoin:miter;stroke-miterlimit:4;stroke-dasharray:none;stroke-opacity:0.99215698"
         id="path660"
         inkscape:connector-curvature="0" /><path
         d="m 1033.691,352.426 333.086,211.765"
         style="fill:none;stroke:#ff0808;stroke-width:1.07624996;stroke-linecap:butt;stroke-linejoin:miter;stroke-miterlimit:4;stroke-dasharray:none;stroke-opacity:0.99215698"
         id="path678"
         inkscape:connector-curvature="0" /><path
         d="m 1033.691,352.426 150,-356.25"
         style="fill:none;stroke:#39a513;stroke-width:1.07624996;stroke-linecap:butt;stroke-linejoin:miter;stroke-miterlimit:4;stroke-dasharray:none;stroke-opacity:1"
         id="path702"
         inkscape:connector-curvature="0" /><path
         d="m 1038.211,376.691 -4.75,-10.164 -7.301,10.02 0.129,-11.215 -10.922,5.859 4.981,-10.05 -12.383,0.539 8.847,-6.891 -11.39,-4.891 10.965,-2.367 -8.145,-9.347 10.906,2.621 -3.281,-11.953 8.688,7.093 2.23,-12.195 4.75,10.164 7.301,-10.019 -0.129,11.214 10.926,-5.859 -4.985,10.051 12.387,-0.539 -8.851,6.89 11.394,4.887 -10.965,2.371 8.145,9.348 -10.91,-2.621 3.285,11.953 -8.692,-7.094 z"
         style="fill:url(#radialGradient728);stroke:none"
         id="path730"
         inkscape:connector-curvature="0" /><path
         d="m 1038.211,376.691 -4.75,-10.164 -7.301,10.02 0.129,-11.215 -10.922,5.859 4.981,-10.05 -12.383,0.539 8.847,-6.891 -11.39,-4.891 10.965,-2.367 -8.145,-9.347 10.906,2.621 -3.281,-11.953 8.688,7.093 2.23,-12.195 4.75,10.164 7.301,-10.019 -0.129,11.214 10.926,-5.859 -4.985,10.051 12.387,-0.539 -8.851,6.89 11.394,4.887 -10.965,2.371 8.145,9.348 -10.91,-2.621 3.285,11.953 -8.692,-7.094 z"
         style="fill:none;stroke:#a56a13;stroke-width:1.43499994;stroke-linecap:round;stroke-linejoin:miter;stroke-miterlimit:5.4117651;stroke-dasharray:none;stroke-opacity:1"
         id="path738"
         inkscape:connector-curvature="0" /></g><text
       xml:space="preserve"
       style="font-style:normal;font-variant:normal;font-weight:normal;font-stretch:normal;font-size:48px;line-height:1.25;font-family:'Nimbus Sans L';-inkscape-font-specification:'Nimbus Sans L';text-align:center;letter-spacing:0px;word-spacing:0px;text-anchor:middle;fill:#000000;fill-opacity:1;stroke:none;stroke-width:0.75"
       x="893.66058"
       y="-158.02051"
       id="text2470"><tspan
         sodipodi:role="line"
         id="tspan2468"
         x="893.66058"
         y="-158.02051"
         style="stroke-width:0.75;font-weight:bold">what we see:</tspan><tspan
         sodipodi:role="line"
         x="893.66058"
         y="-98.020508"
         style="font-size:36px;stroke-width:0.75"
         id="tspan2589">undifferentiated final-state particle trajectories</tspan></text>
<path
       id="use2620"
       style="opacity:1;vector-effect:none;fill:#fff3dd;fill-opacity:1;stroke:#000000;stroke-width:3;stroke-linecap:butt;stroke-linejoin:miter;stroke-miterlimit:4;stroke-dasharray:none;stroke-dashoffset:0;stroke-opacity:1"
       d="m 1393.1475,293.0587 v -43.67615 l 94.0903,101.5903 -94.0903,101.5903 V 408.887 H 1225.0847 V 293.0587 Z"
       inkscape:connector-curvature="0"
       sodipodi:nodetypes="cccccccc" /><text
       xml:space="preserve"
       style="font-style:normal;font-variant:normal;font-weight:normal;font-stretch:normal;font-size:36px;line-height:1.25;font-family:'Nimbus Sans L';-inkscape-font-specification:'Nimbus Sans L';text-align:center;letter-spacing:0px;word-spacing:0px;text-anchor:middle;fill:#000000;fill-opacity:1;stroke:none;stroke-width:0.75"
       x="1341.1836"
       y="339.68085"
       id="text2645"><tspan
         sodipodi:role="line"
         id="tspan2643"
         x="1341.1836"
         y="339.68085"
         style="stroke-width:0.75">non-unique</tspan><tspan
         sodipodi:role="line"
         x="1341.1836"
         y="384.68085"
         style="stroke-width:0.75"
         id="tspan2647">candidates</tspan></text>
</g></svg>