<?xml version="1.0" encoding="UTF-8" standalone="no"?>
<!-- Created with Inkscape (http://www.inkscape.org/) -->

<svg
   width="81.099228mm"
   height="61.354927mm"
   version="1.1"
   viewBox="0 0 81.099228 61.354928"
   id="svg1433"
   sodipodi:docname="sorting-axis.svg"
   inkscape:version="1.1 (c4e8f9e, 2021-05-24)"
   xmlns:inkscape="http://www.inkscape.org/namespaces/inkscape"
   xmlns:sodipodi="http://sodipodi.sourceforge.net/DTD/sodipodi-0.dtd"
   xmlns="http://www.w3.org/2000/svg"
   xmlns:svg="http://www.w3.org/2000/svg">
  <defs
     id="defs1437" />
  <sodipodi:namedview
     id="namedview1435"
     pagecolor="#ffffff"
     bordercolor="#666666"
     borderopacity="1.0"
     inkscape:pageshadow="2"
     inkscape:pageopacity="0.0"
     inkscape:pagecheckerboard="true"
     inkscape:document-units="mm"
     showgrid="false"
     inkscape:showpageshadow="false"
     showborder="false"
     fit-margin-top="0.5"
     fit-margin-left="0.5"
     fit-margin-right="0.5"
     fit-margin-bottom="0.5"
     inkscape:zoom="0.68665675"
     inkscape:cx="-2.9126634"
     inkscape:cy="513.35693"
     inkscape:window-width="1312"
     inkscape:window-height="1003"
     inkscape:window-x="0"
     inkscape:window-y="25"
     inkscape:window-maximized="0"
     inkscape:current-layer="svg1433" />
  <g
     transform="matrix(0.01255785,0,0,-0.01162908,-1.1372047,64.925103)"
     id="g1431"
     inkscape:export-filename="/Users/yana/Projects/PR948/awkward-1.0/docs-src/img/sorting-axis.png"
     inkscape:export-xdpi="96"
     inkscape:export-ydpi="96">
    <path
       d="m 3200,5515 c 0,-18 5,-25 20,-25 15,0 20,7 20,25 0,18 -5,25 -20,25 -15,0 -20,-7 -20,-25 z"
       id="path1353" />
    <path
       d="m 3746,5515 c -9,-14 -30,-28 -46,-32 -46,-9 -38,-33 10,-33 h 40 v -120 c 0,-113 1,-120 20,-120 19,0 20,7 20,165 0,134 -3,165 -14,165 -7,0 -21,-11 -30,-25 z"
       id="path1355" />
    <path
       d="m 2770,5449 c -34,-7 -60,-31 -60,-56 0,-20 34,-15 48,7 16,26 77,28 91,2 15,-28 0,-40 -59,-53 -30,-6 -63,-18 -72,-27 -24,-20 -23,-74 0,-95 23,-21 90,-22 119,-2 19,13 22,13 27,0 7,-18 56,-20 56,-2 0,7 -4,17 -9,23 -5,5 -11,46 -13,91 -2,56 -8,87 -18,96 -20,19 -67,26 -110,16 z m 90,-137 c 0,-46 -60,-83 -100,-62 -22,12 -27,45 -8,56 13,8 65,21 91,23 10,1 17,-6 17,-17 z"
       id="path1357" />
    <path
       d="m 3347,5450 c -41,-12 -57,-29 -57,-60 0,-35 23,-55 84,-71 59,-17 80,-43 52,-65 -29,-21 -64,-17 -90,11 -30,33 -60,34 -51,3 13,-43 32,-53 99,-53 77,0 96,13 96,66 0,43 -14,54 -89,74 -50,12 -75,40 -51,55 26,17 69,11 82,-10 17,-26 48,-26 48,0 0,36 -71,65 -123,50 z"
       id="path1359" />
    <path
       d="m 2979,5393 40,-56 -46,-64 c -44,-62 -44,-63 -19,-63 19,0 33,12 57,47 36,51 29,53 84,-22 14,-19 27,-26 43,-24 22,4 21,6 -22,68 l -45,64 31,41 c 18,23 36,47 41,54 7,9 3,12 -17,12 -19,0 -32,-10 -48,-35 -13,-19 -27,-35 -33,-35 -5,0 -20,16 -33,35 -16,25 -30,35 -48,35 h -26 z"
       id="path1361" />
    <path
       d="m 3200,5330 c 0,-113 1,-120 20,-120 19,0 20,7 20,120 0,113 -1,120 -20,120 -19,0 -20,-7 -20,-120 z"
       id="path1363" />
    <path
       d="m 5980,5070 v -40 H 2630 v -60 h 3350 v -40 c 0,-22 4,-40 10,-40 13,0 220,103 220,110 0,7 -207,110 -220,110 -6,0 -10,-18 -10,-40 z"
       id="path1365" />
    <path
       d="m 2030,4356 v -216 h 51 c 43,0 50,3 47,18 -2,9 -13,18 -26,20 -22,3 -22,5 -22,177 0,172 0,174 23,177 12,2 22,10 22,18 0,11 -13,16 -47,18 l -48,3 z"
       id="path1367" />
    <path
       d="M 1440,2615 V 1390 h -40 c -22,0 -40,-4 -40,-10 0,-13 103,-220 110,-220 7,0 110,207 110,220 0,6 -18,10 -40,10 h -40 v 2450 h -60 z"
       id="path1369" />
    <path
       d="m 2270,3611 v -221 h 45 c 38,0 45,3 45,20 0,15 -7,20 -25,20 h -25 v 360 h 26 c 19,0 25,5 22,18 -2,12 -15,18 -46,20 l -42,3 z"
       id="path1371" />
    <path
       d="m 3602,3808 c -56,-15 -98,-113 -48,-113 13,0 22,10 27,29 9,34 24,46 60,46 33,0 49,-17 49,-55 0,-34 -16,-53 -91,-103 -44,-30 -79,-81 -79,-116 0,-14 16,-16 110,-16 103,0 110,1 110,20 0,18 -7,20 -80,20 -100,0 -104,13 -21,69 76,52 101,84 101,130 -1,68 -63,109 -138,89 z"
       id="path1373" />
    <path
       d="m 4782,3740 c -16,-96 -16,-110 7,-110 10,0 24,7 31,15 18,21 66,19 90,-5 41,-41 12,-120 -45,-120 -25,0 -65,31 -65,50 0,6 -9,10 -20,10 -32,0 -26,-44 11,-74 23,-19 42,-26 74,-26 105,0 154,125 77,197 -22,20 -35,24 -74,21 -51,-3 -55,1 -42,50 6,20 12,22 70,22 57,0 64,2 64,20 0,18 -7,20 -83,20 h -83 z"
       id="path1375" />
    <path
       d="m 5989,3797 c -21,-16 -39,-51 -39,-76 0,-33 33,-25 50,12 25,53 100,47 100,-8 0,-25 -15,-41 -45,-47 -27,-5 -33,-38 -7,-38 27,0 72,-38 72,-61 0,-28 -36,-59 -68,-59 -31,0 -62,27 -62,53 0,11 -8,17 -25,17 -28,0 -31,-15 -13,-55 27,-60 126,-74 180,-26 28,24 33,36 32,71 -1,27 -9,49 -23,64 -19,20 -20,24 -6,36 9,7 15,29 15,50 0,52 -35,80 -99,80 -25,0 -53,-6 -62,-13 z"
       id="path1377" />
    <path
       d="m 6292,3793 c 2,-10 13,-19 26,-21 22,-3 22,-5 22,-177 0,-172 0,-174 -22,-177 -13,-2 -24,-11 -26,-20 -3,-15 4,-18 47,-18 h 51 v 430 h -51 c -43,0 -50,-3 -47,-17 z"
       id="path1379" />
    <path
       d="m 630,3715 c 0,-18 5,-25 20,-25 15,0 20,7 20,25 0,18 -5,25 -20,25 -15,0 -20,-7 -20,-25 z"
       id="path1381" />
    <path
       d="m 1134,3726 c -41,-18 -54,-58 -54,-158 0,-120 27,-158 110,-158 78,0 106,54 98,195 -3,64 -7,79 -29,100 -31,31 -83,40 -125,21 z m 92,-47 c 14,-15 20,-40 22,-93 4,-81 -12,-130 -48,-141 -27,-9 -68,18 -76,50 -10,41 0,171 15,189 19,22 64,20 87,-5 z"
       id="path1383" />
    <path
       d="m 200,3649 c -34,-7 -60,-31 -60,-56 0,-20 34,-15 48,7 16,26 77,28 91,2 15,-28 0,-40 -59,-53 -30,-6 -63,-18 -72,-27 -24,-20 -23,-74 0,-95 23,-21 90,-22 119,-2 19,13 22,13 27,0 7,-18 56,-20 56,-2 0,7 -4,17 -9,22 -5,6 -11,47 -13,92 -2,56 -8,87 -18,96 -20,19 -67,26 -110,16 z m 90,-137 c 0,-46 -60,-83 -100,-62 -22,12 -27,45 -8,56 13,8 65,21 91,23 10,1 17,-6 17,-17 z"
       id="path1385" />
    <path
       d="m 777,3650 c -41,-12 -57,-29 -57,-60 0,-35 23,-55 84,-71 59,-17 80,-43 52,-65 -29,-21 -64,-17 -90,11 -30,33 -60,34 -51,3 13,-43 32,-53 99,-53 77,0 96,13 96,66 0,43 -14,54 -89,74 -50,12 -75,40 -51,55 26,17 69,11 82,-10 17,-26 48,-26 48,0 0,36 -71,65 -123,50 z"
       id="path1387" />
    <path
       d="m 409,3593 40,-56 -46,-64 c -44,-62 -44,-63 -19,-63 19,0 33,12 57,47 36,51 29,53 84,-22 14,-19 27,-26 43,-24 22,4 21,6 -22,68 l -45,64 31,41 c 18,23 36,47 41,54 7,9 3,12 -17,12 -19,0 -32,-10 -48,-35 -13,-19 -27,-35 -33,-35 -5,0 -20,16 -33,35 -16,25 -30,35 -48,35 h -26 z"
       id="path1389" />
    <path
       d="m 630,3530 c 0,-113 1,-120 20,-120 19,0 20,7 20,120 0,113 -1,120 -20,120 -19,0 -20,-7 -20,-120 z"
       id="path1391" />
    <path
       d="m 3800,3515 c 0,-13 8,-28 17,-34 17,-9 17,-10 0,-28 -21,-24 -22,-33 -3,-33 23,0 46,41 46,82 0,36 -2,38 -30,38 -25,0 -30,-4 -30,-25 z"
       id="path1393" />
    <path
       d="m 5030,3515 c 0,-13 8,-28 17,-34 17,-9 17,-10 0,-28 -21,-24 -22,-33 -3,-33 23,0 46,41 46,82 0,36 -2,38 -30,38 -25,0 -30,-4 -30,-25 z"
       id="path1395" />
    <path
       d="m 6457,3524 c -13,-14 -7,-54 8,-54 19,0 19,-9 -1,-31 -28,-32 -10,-46 20,-16 22,22 27,35 24,65 -2,28 -8,38 -23,40 -12,2 -24,0 -28,-4 z"
       id="path1397" />
    <path
       d="m 2270,2841 v -221 h 45 c 38,0 45,3 45,20 0,15 -7,20 -25,20 h -25 v 360 h 26 c 19,0 25,5 22,18 -2,12 -15,18 -46,20 l -42,3 z"
       id="path1399" />
    <path
       d="m 6292,3033 c 2,-10 13,-19 26,-21 22,-3 22,-5 22,-177 0,-172 0,-174 -22,-177 -13,-2 -24,-11 -26,-20 -3,-15 4,-18 47,-18 h 51 v 430 h -51 c -43,0 -50,-3 -47,-17 z"
       id="path1401" />
    <path
       d="m 6457,2764 c -13,-14 -7,-54 8,-54 19,0 19,-9 -1,-31 -28,-32 -10,-46 20,-16 22,22 27,35 24,65 -2,28 -8,38 -23,40 -12,2 -24,0 -28,-4 z"
       id="path1403" />
    <path
       d="m 2270,2081 v -221 h 45 c 38,0 45,3 45,20 0,15 -7,20 -25,20 h -25 v 360 h 26 c 19,0 25,5 22,18 -2,12 -15,18 -46,20 l -42,3 z"
       id="path1405" />
    <path
       d="m 2700,2119 v -170 l 23,3 c 21,3 22,7 25,128 l 3,125 82,-125 c 69,-104 87,-125 107,-125 h 25 l 3,168 2,167 h -49 l -6,-252 -82,126 c -70,107 -86,126 -108,126 h -25 z"
       id="path1407" />
    <path
       d="m 6292,2273 c 2,-10 13,-19 26,-21 22,-3 22,-5 22,-177 0,-172 0,-174 -22,-177 -13,-2 -24,-11 -26,-20 -3,-15 4,-18 47,-18 h 51 v 430 h -51 c -43,0 -50,-3 -47,-17 z"
       id="path1409" />
    <path
       d="m 4937,2269 c -30,-18 -47,-73 -47,-155 0,-118 32,-164 114,-164 44,0 83,32 96,78 24,86 5,206 -38,238 -21,16 -100,18 -125,3 z m 110,-59 c 16,-31 17,-154 2,-183 -24,-46 -70,-51 -96,-10 -25,37 -24,159 0,197 24,36 75,34 94,-4 z"
       id="path1411" />
    <path
       d="m 3068,2183 c -14,-9 -31,-27 -37,-40 -14,-31 -14,-105 0,-136 15,-33 60,-57 106,-57 45,0 77,20 98,60 30,58 12,140 -37,174 -29,21 -96,20 -130,-1 z m 110,-43 c 30,-28 30,-95 0,-127 -38,-41 -89,-25 -108,33 -27,82 49,148 108,94 z"
       id="path1413" />
    <path
       d="m 3292,2078 c 3,-115 4,-123 23,-123 18,0 20,8 23,85 3,94 17,120 62,120 43,0 50,-16 50,-117 0,-86 1,-93 20,-93 19,0 20,7 20,105 0,92 -3,108 -20,125 -24,24 -86,27 -118,4 -20,-14 -22,-14 -22,0 0,9 -9,16 -20,16 -20,0 -20,-5 -18,-122 z"
       id="path1415" />
    <path
       d="m 3574,2166 c -30,-30 -34,-40 -34,-85 0,-62 13,-93 50,-114 63,-38 160,-5 160,54 0,17 -35,9 -53,-11 -25,-29 -71,-26 -96,6 -12,15 -21,31 -21,35 0,5 41,9 90,9 101,0 105,4 76,74 -18,44 -52,66 -99,66 -31,0 -46,-7 -73,-34 z m 116,-26 c 33,-33 24,-40 -45,-40 -65,0 -66,0 -54,23 23,43 66,50 99,17 z"
       id="path1417" />
    <path
       d="m 3800,1985 c 0,-13 8,-28 17,-34 17,-9 17,-10 0,-28 -21,-24 -22,-33 -3,-33 23,0 46,41 46,82 0,36 -2,38 -30,38 -25,0 -30,-4 -30,-25 z"
       id="path1419" />
    <path
       d="m 6457,2004 c -13,-14 -7,-54 8,-54 19,0 19,-9 -1,-31 -28,-32 -10,-46 20,-16 22,22 27,35 24,65 -2,28 -8,38 -23,40 -12,2 -24,0 -28,-4 z"
       id="path1421" />
    <path
       d="m 2270,1331 v -221 h 45 c 38,0 45,3 45,20 0,15 -7,20 -25,20 h -25 v 360 h 26 c 19,0 25,5 22,18 -2,12 -15,18 -46,20 l -42,3 z"
       id="path1423" />
    <path
       d="m 3764,1516 c -9,-14 -30,-30 -48,-34 -17,-5 -32,-16 -34,-25 -3,-14 4,-17 37,-17 h 40 l 3,-117 c 3,-110 4,-118 23,-118 19,0 20,7 20,164 0,173 -7,198 -41,147 z"
       id="path1425" />
    <path
       d="m 6292,1513 c 2,-10 13,-19 26,-21 22,-3 22,-5 22,-177 0,-172 0,-174 -22,-177 -13,-2 -24,-11 -26,-20 -3,-15 4,-18 47,-18 h 51 v 430 h -51 c -43,0 -50,-3 -47,-17 z"
       id="path1427" />
    <path
       d="m 2000,770 c 0,-15 7,-20 25,-20 h 25 V 390 h -25 c -18,0 -25,-5 -25,-20 0,-17 7,-20 45,-20 h 45 v 440 h -45 c -38,0 -45,-3 -45,-20 z"
       id="path1429" />
  </g>
</svg>
